<?xml version="1.0" standalone="no"?>
<!DOCTYPE svg PUBLIC "-//W3C//DTD SVG 20010904//EN"
 "http://www.w3.org/TR/2001/REC-SVG-20010904/DTD/svg10.dtd">
<svg version="1.0" xmlns="http://www.w3.org/2000/svg"
 width="600.000000pt" height="600.000000pt" viewBox="0 0 600.000000 600.000000"
 preserveAspectRatio="xMidYMid meet">
<g transform="translate(0.000000,600.000000) scale(0.100000,-0.100000)"
fill="#000000" stroke="none">
<path d="M2771 5919 c-422 -30 -868 -174 -1260 -404 -317 -187 -634 -476 -862
-785 -452 -615 -646 -1403 -533 -2170 19 -127 81 -375 130 -519 111 -325 312
-672 550 -952 255 -300 626 -577 997 -746 167 -75 233 -100 417 -153 302 -87
438 -105 800 -105 318 0 406 10 655 70 612 149 1138 470 1548 944 559 645 807
1537 662 2385 -102 605 -380 1147 -807 1576 -611 614 -1431 921 -2297 859z
m483 -24 c87 -8 166 -20 177 -26 11 -5 24 -7 29 -4 16 10 240 -37 233 -48 -3
-5 3 -7 13 -3 11 3 39 -1 64 -8 l45 -14 -48 0 c-26 0 -50 -2 -54 -5 -3 -4 23
-6 58 -6 96 1 101 0 93 -13 -4 -6 -3 -8 4 -5 5 4 36 -3 69 -15 64 -23 90 -40
52 -32 l-24 5 24 -11 c17 -8 28 -7 39 2 12 10 14 10 8 1 -5 -9 0 -13 18 -13
14 0 28 -5 31 -10 4 -6 10 -8 15 -5 5 3 30 -6 57 -20 33 -17 42 -25 28 -26
-11 -1 0 -5 25 -10 25 -5 65 -23 89 -40 25 -17 54 -32 65 -33 36 -4 142 -69
139 -84 -2 -7 4 -9 14 -5 11 4 14 3 9 -5 -4 -8 -2 -10 8 -6 9 3 23 -6 37 -25
13 -17 27 -31 32 -31 5 0 4 7 -4 16 -8 10 0 8 24 -6 20 -12 34 -27 30 -33 -3
-6 -1 -7 6 -3 12 8 88 -51 84 -65 -1 -4 4 -6 11 -5 25 2 263 -204 258 -224 -1
-6 1 -9 6 -6 14 8 146 -130 137 -145 -5 -7 -4 -10 2 -6 13 8 97 -81 154 -162
21 -31 55 -78 74 -105 19 -26 32 -52 29 -57 -3 -5 -1 -9 4 -9 14 0 125 -184
172 -285 23 -49 54 -115 70 -146 26 -53 49 -117 105 -292 19 -60 22 -83 14
-104 -5 -14 -7 -28 -4 -31 2 -3 8 5 13 18 7 18 12 6 30 -66 29 -120 44 -221
37 -248 -5 -17 -4 -18 4 -6 9 12 11 10 11 -12 0 -16 -6 -28 -12 -29 -10 0 -10
-2 0 -6 6 -2 9 -9 6 -15 -4 -6 -1 -13 5 -17 17 -11 30 -348 20 -529 -15 -268
-63 -535 -103 -574 -12 -12 -15 -18 -8 -14 8 5 12 1 12 -11 0 -33 -12 -63 -23
-56 -6 3 -7 1 -3 -6 9 -14 -74 -262 -85 -255 -5 3 -6 -1 -4 -8 3 -7 -22 -67
-55 -133 -33 -66 -57 -106 -55 -90 5 27 4 27 -4 7 -6 -12 -8 -29 -5 -37 7 -18
-98 -191 -132 -218 -13 -10 -24 -23 -24 -29 0 -6 9 0 21 13 12 13 0 -5 -25
-41 -25 -36 -62 -89 -82 -118 -20 -28 -43 -52 -51 -52 -8 0 -11 -5 -8 -11 9
-13 -24 -51 -38 -42 -5 3 -8 2 -4 -3 3 -5 -2 -18 -10 -29 -12 -15 -14 -16 -10
-3 4 12 2 15 -8 12 -8 -3 -11 -12 -8 -20 6 -17 -64 -107 -78 -98 -5 3 -8 0 -7
-8 2 -7 -3 -12 -10 -10 -8 1 -11 -2 -8 -7 4 -5 1 -13 -5 -17 -6 -3 -15 -1 -19
5 -5 9 -9 9 -18 -1 -5 -7 -11 -17 -11 -23 -1 -5 -7 -11 -14 -11 -6 -1 -16 -3
-22 -4 -5 -1 -14 -2 -18 -1 -5 1 -6 -3 -2 -9 5 -8 11 -8 19 -1 7 6 16 8 19 4
9 -8 38 17 31 28 -3 5 0 9 5 9 18 0 12 -15 -15 -41 -14 -13 -34 -23 -45 -21
-20 3 -27 -14 -8 -20 7 -2 4 -10 -7 -18 -10 -8 -15 -10 -11 -3 4 6 2 15 -4 19
-8 4 -9 3 -5 -4 4 -6 -7 -26 -24 -44 -19 -21 -28 -26 -23 -14 4 13 3 17 -5 12
-7 -4 -12 -13 -12 -20 0 -7 -13 -24 -28 -39 -22 -22 -31 -24 -41 -14 -7 6 -12
8 -11 2 5 -24 -2 -35 -42 -64 -30 -22 -48 -29 -67 -25 -21 4 -23 3 -11 -5 13
-10 13 -13 -4 -26 -10 -8 -22 -12 -27 -10 -4 3 -11 0 -15 -6 -5 -8 -2 -10 7
-5 8 4 5 0 -6 -9 -11 -9 -28 -14 -37 -12 -10 3 -23 -1 -29 -9 -10 -12 -8 -13
7 -9 18 6 18 5 1 -7 -91 -64 -377 -216 -377 -201 0 5 -4 3 -8 -3 -8 -12 -112
-63 -155 -75 -23 -6 -28 -5 -23 6 4 11 -1 12 -25 3 -33 -12 -40 -23 -8 -15 13
3 18 2 13 -3 -11 -10 -122 -47 -179 -60 -22 -5 -67 -18 -100 -30 -92 -32 -211
-49 -295 -43 -41 2 -86 1 -100 -5 -19 -7 -6 -9 50 -6 51 2 66 0 48 -6 -84 -26
-521 -36 -695 -16 -68 8 -126 17 -130 19 -5 3 -42 8 -83 11 -68 6 -198 34
-260 55 -14 5 -74 24 -133 42 -76 23 -106 36 -103 46 3 8 -3 13 -17 13 -12 0
-32 1 -45 1 -14 0 -20 4 -16 11 4 7 2 8 -5 4 -14 -9 -121 33 -121 48 0 5 -3 7
-6 3 -6 -6 -122 51 -147 71 -7 6 -25 14 -42 18 -32 8 -104 54 -105 67 0 5 5 5
12 1 6 -4 8 -3 4 4 -3 5 -1 12 6 14 7 3 5 7 -6 11 -9 4 -15 3 -12 -2 3 -5 -1
-14 -8 -20 -11 -10 -16 -8 -21 9 -3 11 -10 18 -15 15 -4 -3 -21 2 -36 10 -22
11 -25 15 -10 15 23 0 13 13 -12 15 -36 3 -61 17 -68 38 -4 11 -13 28 -22 36
-13 13 -14 12 -8 -9 4 -14 4 -20 -1 -14 -4 6 -39 32 -78 58 -38 27 -86 65
-107 85 -20 20 -50 48 -68 64 -17 15 -28 32 -25 37 3 6 -2 10 -12 10 -22 0
-196 176 -188 190 4 6 1 9 -7 8 -7 -2 -12 3 -10 10 1 8 -1 11 -6 8 -5 -3 -19
6 -30 19 -23 26 -30 51 -12 40 16 -10 11 1 -7 16 -11 10 -14 10 -9 2 4 -7 2
-13 -4 -13 -15 0 -71 91 -63 103 3 6 1 7 -5 3 -6 -3 -20 6 -31 21 -11 16 -26
34 -31 41 -6 7 -8 17 -5 22 3 6 2 10 -3 10 -11 0 -92 121 -92 138 0 7 -4 12
-8 12 -13 0 -33 50 -26 62 4 7 2 8 -4 4 -7 -4 -17 4 -24 21 -6 15 -19 36 -27
46 -14 17 -14 20 2 32 12 8 14 15 8 20 -6 3 -11 1 -11 -4 0 -6 -4 -11 -8 -11
-13 0 -93 179 -86 192 4 7 3 8 -4 4 -7 -4 -17 13 -27 46 -8 29 -21 67 -29 83
-8 17 -19 48 -25 70 -6 22 -24 81 -39 130 -20 62 -25 92 -18 97 8 5 7 8 -1 8
-16 0 -43 129 -46 217 -1 40 -5 73 -8 73 -4 0 -7 10 -7 23 -1 12 -5 47 -11 77
-18 104 -13 468 10 644 24 190 40 277 50 270 4 -2 11 1 15 7 4 8 3 9 -4 5 -7
-4 -12 -2 -12 4 0 22 22 100 29 100 3 0 7 13 8 30 3 40 53 199 65 206 6 4 8
-3 4 -17 -6 -21 -6 -22 5 -6 7 12 8 22 2 28 -12 12 14 96 50 167 13 26 37 75
52 109 16 34 32 60 37 57 4 -3 6 1 3 8 -4 12 13 46 92 182 18 30 39 54 45 52
7 -1 10 -1 6 1 -5 3 -8 9 -8 14 0 6 4 8 9 5 5 -3 12 6 16 22 4 15 21 45 39 67
18 22 35 48 39 58 4 11 12 15 19 11 7 -4 10 -4 6 1 -10 10 31 67 43 60 5 -4 9
2 9 13 0 10 9 27 20 37 11 10 20 15 20 10 0 -4 6 -2 14 5 8 6 12 19 9 28 -6
15 -4 15 9 4 14 -11 16 -11 12 5 -6 22 53 96 68 87 6 -4 8 -3 5 3 -10 16 99
117 118 110 9 -4 15 -2 14 6 -3 22 1 40 7 34 4 -3 22 12 42 33 33 37 63 55 46
28 -4 -7 -3 -8 5 -4 6 4 9 11 6 15 -2 5 5 17 17 27 12 11 18 13 14 7 -5 -9 -2
-11 8 -7 9 3 14 10 11 14 -9 15 71 71 92 64 12 -4 14 -3 6 3 -10 7 -8 13 7 26
11 9 20 13 20 9 0 -4 5 1 10 10 6 9 36 31 68 49 31 18 60 37 64 43 5 7 8 7 8
1 0 -5 5 -2 11 8 5 9 16 17 24 17 7 0 20 6 28 14 23 24 88 55 102 49 8 -2 22
0 32 7 16 10 15 10 -4 5 -13 -4 -23 -4 -23 -1 0 9 83 41 95 37 5 -1 7 1 2 5
-6 7 68 50 98 58 6 1 19 7 31 13 41 23 102 40 116 32 8 -4 20 -3 28 3 12 8 12
9 -2 4 -10 -3 -20 -1 -23 4 -4 6 5 10 19 10 14 0 27 4 30 8 3 5 33 17 68 27
35 9 86 25 113 35 78 27 241 62 299 63 30 1 52 5 50 8 -3 6 49 12 286 33 95 8
262 4 404 -9z m-2444 -1009 c0 -3 -4 -8 -10 -11 -5 -3 -10 -1 -10 4 0 6 5 11
10 11 6 0 10 -2 10 -4z"/>
<path d="M3323 5857 c24 -6 51 -6 70 0 27 8 21 9 -38 9 -64 0 -67 -1 -32 -9z"/>
<path d="M2608 5853 c12 -2 32 -2 45 0 12 2 2 4 -23 4 -25 0 -35 -2 -22 -4z"/>
<path d="M3178 5853 c7 -3 16 -2 19 1 4 3 -2 6 -13 5 -11 0 -14 -3 -6 -6z"/>
<path d="M2210 5786 c0 -2 9 -6 20 -9 11 -3 18 -1 14 4 -5 9 -34 13 -34 5z"/>
<path d="M2290 5780 c-8 -5 -10 -10 -5 -10 6 0 17 5 25 10 8 5 11 10 5 10 -5
0 -17 -5 -25 -10z"/>
<path d="M2670 5764 c-189 -24 -461 -88 -605 -142 -70 -26 -167 -68 -253 -108
-82 -38 -86 -39 -76 -22 4 7 3 8 -5 4 -6 -4 -8 -12 -5 -18 5 -8 1 -9 -10 -5
-9 4 -15 3 -11 -2 7 -13 -102 -74 -116 -65 -8 5 -9 3 -4 -6 6 -10 4 -12 -9 -7
-9 4 -15 3 -11 -2 6 -10 -55 -51 -83 -56 -9 -1 -16 -8 -14 -15 2 -8 -7 -10
-30 -6 -21 4 -26 3 -14 -2 16 -7 14 -11 -18 -40 -38 -33 -69 -45 -46 -17 18
22 3 18 -23 -6 -20 -19 -20 -20 -2 -13 18 7 19 6 6 -10 -8 -9 -20 -15 -27 -12
-8 3 -13 2 -11 -3 2 -8 -56 -61 -68 -61 -4 0 -2 7 5 15 11 13 10 14 -4 9 -10
-4 -15 -12 -12 -19 7 -18 -52 -71 -75 -67 -10 2 -19 -2 -19 -8 0 -6 5 -8 10
-5 6 3 10 2 10 -2 0 -10 -39 -36 -59 -39 -16 -3 -32 -25 -26 -34 2 -4 -14 -24
-36 -46 -22 -21 -37 -31 -34 -21 4 9 3 17 -3 17 -6 0 -9 -8 -7 -17 4 -26 -6
-37 -17 -22 -8 11 -9 10 -4 -3 6 -19 -9 -33 -36 -33 -10 0 -18 -3 -18 -7 0 -5
0 -11 0 -14 0 -4 7 -1 15 6 24 20 18 2 -13 -36 -15 -18 -33 -34 -41 -34 -8 0
-12 -3 -8 -6 5 -5 -10 -27 -43 -62 -8 -8 -19 -23 -25 -32 -41 -67 -58 -89 -64
-85 -4 2 -8 -1 -8 -8 0 -7 -18 -39 -40 -72 -55 -82 -90 -143 -110 -187 -16
-38 -39 -43 -27 -6 4 14 3 18 -6 13 -7 -4 -9 -18 -5 -35 7 -30 -26 -105 -40
-92 -5 4 -5 1 -1 -6 4 -7 -4 -36 -18 -65 -13 -28 -38 -86 -55 -127 -17 -41
-31 -67 -31 -57 0 9 -3 17 -7 17 -5 0 -8 -24 -8 -52 0 -31 -7 -67 -18 -87 -9
-19 -17 -44 -17 -55 0 -12 -5 -28 -11 -36 -8 -11 -9 -6 -7 22 2 20 0 34 -5 31
-5 -3 -7 -24 -4 -47 4 -26 -3 -82 -18 -151 -13 -60 -29 -150 -35 -200 -7 -49
-15 -97 -18 -105 -16 -40 -18 -225 -2 -241 10 -11 41 -14 136 -12 l124 2 0
-50 0 -50 -124 2 c-139 3 -162 -5 -151 -50 4 -14 7 -102 7 -194 -1 -93 2 -166
5 -163 3 3 5 38 4 78 -3 86 5 88 12 3 3 -33 15 -98 27 -145 12 -47 24 -122 27
-168 3 -45 9 -85 14 -87 4 -3 5 5 2 17 -10 41 7 13 21 -35 12 -41 12 -45 -2
-39 -10 3 -7 -3 6 -16 12 -12 23 -32 23 -45 5 -64 8 -89 13 -94 3 -4 6 5 7 18
1 23 1 22 14 -6 7 -16 11 -33 8 -37 -2 -5 0 -8 5 -8 9 0 24 -48 37 -117 4 -18
11 -36 17 -39 6 -4 8 2 3 17 -5 19 -4 21 4 9 6 -8 11 -25 11 -37 0 -12 7 -29
16 -37 8 -9 12 -21 8 -27 -4 -8 -3 -9 4 -5 16 10 15 -17 0 -33 -11 -11 -9 -12
8 -2 19 9 23 7 34 -19 6 -16 9 -34 4 -41 -5 -8 -3 -9 6 -4 10 6 12 4 7 -9 -4
-9 -3 -14 2 -11 13 7 24 -12 26 -44 4 -56 5 -61 14 -61 6 0 6 12 1 30 -11 39
-5 38 16 -2 9 -17 20 -36 25 -42 34 -42 89 -122 89 -130 0 -5 -6 -2 -13 8 -12
16 -13 16 -13 -2 0 -14 6 -19 18 -17 13 3 27 -11 49 -51 17 -29 35 -52 39 -49
4 3 11 -2 14 -11 4 -10 2 -13 -6 -8 -7 4 -8 3 -4 -5 4 -6 2 -20 -5 -29 -10
-12 -7 -11 10 3 l23 20 24 -28 c13 -16 21 -33 18 -39 -4 -7 -2 -8 5 -4 8 5 10
0 7 -17 -3 -20 -1 -25 13 -22 18 3 53 -18 51 -32 -1 -4 -7 -14 -13 -22 -9 -12
-9 -13 1 -7 7 4 12 2 12 -4 0 -6 8 -10 18 -8 29 5 61 -25 58 -54 -3 -26 7 -30
33 -14 11 7 13 5 8 -8 -4 -9 -3 -15 2 -12 11 7 34 -20 27 -32 -3 -6 2 -16 12
-23 15 -13 16 -12 3 4 -18 22 -10 22 33 -4 20 -12 33 -25 30 -30 -9 -15 45
-62 63 -55 13 5 14 4 3 -9 -11 -13 -10 -14 3 -9 15 5 107 -49 107 -63 0 -4 -5
-2 -12 5 -7 7 -17 12 -22 12 -13 -1 24 -23 42 -26 8 -2 22 -10 33 -20 15 -14
17 -20 7 -27 -9 -5 -4 -7 14 -3 20 5 34 0 52 -17 14 -13 42 -32 63 -43 46 -23
64 -39 55 -48 -3 -4 2 -4 12 0 15 6 17 4 11 -6 -5 -8 -4 -11 3 -7 16 11 44 -4
38 -19 -3 -8 -2 -13 2 -12 17 5 73 -13 68 -21 -3 -5 1 -12 10 -15 8 -3 12 -2
9 4 -11 18 10 10 49 -20 22 -17 50 -30 63 -30 13 0 22 -4 19 -9 -3 -4 6 -6 21
-3 19 3 24 1 18 -7 -4 -8 -2 -11 6 -10 24 5 59 -12 70 -33 7 -13 17 -18 31
-15 11 3 50 -5 86 -19 36 -13 76 -25 89 -26 13 -2 23 -6 23 -10 0 -4 -13 -5
-29 -2 -16 3 -31 2 -34 -4 -4 -5 23 -9 66 -10 40 0 101 -8 137 -17 80 -20 103
-24 159 -30 67 -8 63 -15 -7 -13 -34 1 -64 0 -67 -4 -4 -4 118 -11 335 -19 46
-1 80 -11 74 -21 -4 -7 -3 -8 5 -4 6 4 9 11 6 15 -2 5 12 7 33 6 l37 -2 0 131
0 131 50 1 50 2 -50 -7 -50 -7 45 -5 45 -4 3 -112 c3 -118 9 -133 53 -133 34
-1 128 8 168 15 18 4 72 6 120 7 52 0 78 3 66 8 -17 6 -14 9 17 15 20 4 42 4
49 -1 8 -5 10 -3 4 6 -6 10 -1 12 19 8 14 -3 29 -1 32 3 3 5 17 7 32 4 20 -4
22 -3 8 3 -13 6 2 11 55 19 50 8 76 9 80 2 3 -6 9 -2 12 9 3 14 17 23 42 28
21 4 66 17 101 30 35 13 64 18 64 13 0 -6 5 -7 10 -4 6 4 8 11 5 16 -4 5 8 12
25 15 17 4 33 11 36 15 3 5 15 7 27 5 12 -1 15 -1 7 2 -9 3 -4 8 15 17 20 8
36 9 49 3 12 -7 16 -7 12 0 -9 14 23 44 40 38 8 -3 14 -1 14 4 0 6 7 10 15 10
8 0 15 5 15 12 0 6 3 8 7 5 3 -4 12 -2 19 4 7 6 27 11 44 11 21 1 27 4 18 10
-11 6 -10 10 2 17 8 5 18 7 24 4 5 -3 6 -1 3 4 -7 11 43 36 75 38 10 1 21 5
25 10 5 4 0 5 -9 2 -28 -10 -21 0 17 23 19 12 39 19 45 15 6 -4 9 -1 8 7 -2 8
7 13 22 13 17 1 24 6 22 16 -1 9 13 24 33 35 19 10 35 22 35 27 0 5 9 6 19 2
11 -3 22 -1 26 4 4 7 -1 8 -12 4 -16 -6 -16 -5 -4 11 8 9 20 15 27 12 8 -3 13
-1 11 3 -4 17 113 111 131 105 14 -5 15 -4 2 5 -13 10 -8 15 12 12 5 0 7 4 5
10 -1 6 4 14 12 17 9 3 11 0 6 -8 -5 -9 -4 -11 4 -6 6 4 9 11 7 15 -5 7 57 71
68 71 4 0 -1 -12 -10 -28 l-16 -27 20 25 c12 14 17 29 13 33 -11 11 99 118
112 110 6 -3 7 -1 3 6 -9 13 38 73 49 63 5 -4 5 -2 2 4 -4 6 4 21 17 33 18 17
25 19 29 9 3 -7 5 -4 4 7 -1 24 81 137 94 129 5 -3 6 1 4 8 -6 14 38 81 47 73
2 -3 5 1 5 8 0 6 16 37 35 67 19 30 69 120 111 198 44 84 77 138 81 130 3 -7
3 -3 1 8 -3 13 11 64 34 120 96 242 163 533 183 797 10 127 10 150 -3 158 -8
5 -69 9 -136 9 l-123 0 0 50 0 51 118 -1 c64 -1 126 2 136 6 17 7 18 15 12
113 -17 277 -90 608 -186 842 -17 40 -28 79 -25 87 2 7 1 11 -4 8 -5 -3 -21
22 -36 57 -62 141 -202 374 -314 522 -158 210 -367 413 -591 575 -47 34 -84
66 -82 72 1 5 -2 7 -7 3 -6 -3 -28 6 -51 20 -40 25 -53 39 -26 29 8 -3 19 3
24 13 9 15 7 19 -8 19 -14 0 -16 -3 -8 -13 24 -29 -53 -4 -138 45 -98 56 -304
148 -429 192 -226 79 -602 147 -765 138 l-65 -3 -3 -131 -3 -130 -49 0 -49 1
-3 130 -3 130 -85 2 c-47 0 -132 -5 -190 -13z m260 -140 l0 -135 70 2 70 2 0
133 0 134 73 0 c180 0 451 -50 691 -127 168 -54 222 -76 381 -155 616 -307
1103 -840 1351 -1480 102 -262 184 -656 184 -880 l0 -49 -136 2 -136 1 -1 -71
-2 -71 139 0 139 0 -7 -112 c-32 -529 -224 -1041 -561 -1496 -46 -62 -148
-176 -245 -272 -245 -245 -460 -398 -765 -546 -324 -157 -664 -244 -1037 -268
l-68 -4 0 137 0 136 -70 0 -70 1 0 -138 0 -137 -47 4 c-310 28 -409 45 -623
105 -182 52 -271 86 -455 176 -636 309 -1115 834 -1378 1509 -85 219 -158 553
-173 795 l-7 111 138 -2 138 -1 1 71 1 71 -137 0 -138 0 0 33 c0 17 5 82 10
142 73 783 464 1490 1085 1960 432 327 934 516 1465 554 58 4 108 5 113 3 4
-2 7 -64 7 -138z m-1920 -4556 c0 -17 -23 -3 -26 16 -2 14 0 15 12 5 8 -6 14
-16 14 -21z m231 -214 c23 -25 23 -26 2 -13 -13 7 -25 19 -27 26 -8 19 -2 16
25 -13z"/>
<path d="M2815 5662 c-90 -6 -277 -35 -384 -58 -384 -86 -763 -268 -1081 -520
-129 -102 -356 -335 -453 -465 -165 -221 -300 -470 -386 -712 -69 -191 -132
-470 -145 -642 -4 -44 -9 -92 -12 -107 l-6 -28 90 0 89 0 7 88 c38 478 237
971 547 1353 44 54 84 101 89 104 15 10 12 28 -4 22 -8 -3 -17 -1 -20 6 -3 7
-4 4 -3 -5 3 -22 -64 -109 -79 -103 -7 2 -10 -4 -7 -14 2 -9 -5 -25 -16 -35
-23 -21 -29 -9 -8 14 10 12 9 12 -6 1 -9 -8 -16 -19 -15 -26 2 -7 -14 -37 -35
-66 -21 -30 -58 -89 -83 -131 -28 -47 -52 -78 -62 -78 -12 0 -13 -3 -5 -8 9
-5 4 -20 -15 -52 -15 -25 -45 -85 -67 -134 -21 -48 -44 -94 -51 -101 -8 -7
-16 -26 -19 -41 -10 -56 -61 -184 -70 -177 -4 4 -5 3 -1 -4 4 -7 -1 -40 -9
-75 -45 -177 -87 -423 -85 -490 0 -28 0 -28 -65 -28 l-65 0 0 49 c0 153 117
697 142 659 5 -9 7 -7 6 7 -5 37 54 188 135 345 86 170 176 312 191 303 5 -3
6 -2 3 4 -13 20 186 268 206 256 6 -3 7 -1 3 5 -7 11 160 192 177 192 5 0 5
-5 1 -12 -4 -7 -3 -8 5 -4 6 4 9 11 7 15 -13 20 267 233 417 318 54 30 61 32
77 18 14 -13 17 -13 17 0 0 8 -4 12 -8 9 -4 -2 -10 0 -13 5 -6 8 192 111 244
126 14 4 48 18 75 31 129 58 423 131 620 153 55 7 115 13 133 16 l32 4 0 -69
0 -69 -32 -5 c-18 -2 -90 -12 -160 -21 -174 -23 -360 -70 -553 -142 -100 -37
-327 -152 -418 -211 -49 -32 -84 -49 -94 -45 -10 4 -14 2 -10 -4 4 -6 -8 -21
-25 -34 -18 -13 -47 -37 -65 -52 -18 -16 -37 -26 -43 -22 -6 4 -9 2 -8 -3 5
-16 -100 -104 -114 -96 -7 4 -10 3 -5 -1 4 -5 -11 -28 -34 -51 -37 -37 -45
-41 -67 -33 -22 8 -23 8 -12 -6 7 -8 17 -12 24 -8 6 3 -4 -10 -23 -30 -19 -20
-32 -39 -29 -43 4 -3 24 13 45 37 50 55 219 202 313 271 357 263 764 420 1214
468 55 6 101 12 102 13 4 4 7 167 3 170 -2 1 -22 1 -44 -1z"/>
<path d="M3140 5579 l0 -86 73 -7 c382 -36 714 -144 1039 -337 407 -241 730
-588 950 -1019 150 -295 240 -603 263 -907 l8 -93 88 0 89 0 -5 43 c-3 23 -10
89 -16 147 -40 387 -198 817 -425 1157 -113 168 -174 244 -318 392 -214 219
-432 379 -697 511 -303 152 -593 237 -936 274 l-113 12 0 -87z m170 50 c188
-26 381 -70 520 -118 152 -52 153 -53 138 -63 -9 -6 -6 -7 10 -3 14 4 41 -3
75 -18 28 -14 63 -28 76 -32 19 -6 21 -9 10 -17 -10 -7 -9 -8 6 -4 13 4 45 -8
89 -34 38 -22 85 -48 104 -57 54 -26 276 -184 365 -261 88 -75 239 -229 324
-328 79 -93 225 -312 217 -325 -4 -8 -3 -9 4 -5 14 8 66 -90 56 -106 -4 -6 -3
-8 4 -4 10 6 107 -175 117 -219 2 -11 25 -74 50 -140 68 -178 111 -363 135
-570 5 -49 12 -109 16 -132 l5 -43 -69 0 -69 0 -12 118 c-67 634 -394 1245
-889 1658 -168 140 -303 228 -507 330 -276 138 -566 221 -866 249 l-65 6 -2
61 c-1 33 0 63 2 67 5 8 47 5 156 -10z"/>
<path d="M3538 5568 c5 -5 16 -8 23 -6 8 3 3 7 -10 11 -17 4 -21 3 -13 -5z"/>
<path d="M3590 5560 c-9 -6 -10 -10 -3 -10 6 0 15 5 18 10 8 12 4 12 -15 0z"/>
<path d="M3850 5480 c-9 -6 -10 -10 -3 -10 6 0 15 5 18 10 8 12 4 12 -15 0z"/>
<path d="M3557 5469 c7 -7 15 -10 18 -7 3 3 -2 9 -12 12 -14 6 -15 5 -6 -5z"/>
<path d="M3868 5383 c7 -3 16 -2 19 1 4 3 -2 6 -13 5 -11 0 -14 -3 -6 -6z"/>
<path d="M4014 5316 c11 -9 24 -16 30 -16 12 0 7 5 -24 19 -24 11 -24 11 -6
-3z"/>
<path d="M4325 5250 c2 -27 10 -33 12 -10 1 11 -2 22 -6 24 -4 3 -7 -4 -6 -14z"/>
<path d="M4575 5090 c10 -11 20 -20 23 -20 3 0 -3 9 -13 20 -10 11 -20 20 -23
20 -3 0 3 -9 13 -20z"/>
<path d="M4564 5071 c7 -11 46 -35 46 -28 0 3 -12 12 -26 22 -15 9 -23 12 -20
6z"/>
<path d="M4536 5028 c3 -5 10 -6 15 -3 13 9 11 12 -6 12 -8 0 -12 -4 -9 -9z"/>
<path d="M4705 4861 c-3 -5 -2 -12 3 -15 5 -3 9 1 9 9 0 17 -3 19 -12 6z"/>
<path d="M4937 4760 c10 -11 19 -20 21 -20 1 0 -2 9 -8 20 -6 11 -15 20 -20
20 -6 0 -2 -9 7 -20z"/>
<path d="M5000 4556 c0 -2 8 -10 18 -17 15 -13 16 -12 3 4 -13 16 -21 21 -21
13z"/>
<path d="M5105 4469 c-4 -6 -5 -12 -2 -15 2 -3 7 2 10 11 7 17 1 20 -8 4z"/>
<path d="M5307 4177 c-3 -8 1 -14 8 -14 7 0 11 6 8 14 -3 7 -6 13 -8 13 -2 0
-5 -6 -8 -13z"/>
<path d="M5486 3797 c3 -10 9 -15 12 -12 3 3 0 11 -7 18 -10 9 -11 8 -5 -6z"/>
<path d="M5557 3539 c4 -13 8 -18 11 -10 2 7 -1 18 -6 23 -8 8 -9 4 -5 -13z"/>
<path d="M5471 3484 c0 -11 3 -14 6 -6 3 7 2 16 -1 19 -3 4 -6 -2 -5 -13z"/>
<path d="M2143 5483 c9 -2 23 -2 30 0 6 3 -1 5 -18 5 -16 0 -22 -2 -12 -5z"/>
<path d="M1955 5310 c-8 -13 5 -13 25 0 13 8 13 10 -2 10 -9 0 -20 -4 -23 -10z"/>
<path d="M1790 5306 c0 -2 7 -7 16 -10 8 -3 12 -2 9 4 -6 10 -25 14 -25 6z"/>
<path d="M1665 5251 c-3 -5 -2 -12 3 -15 5 -3 9 1 9 9 0 17 -3 19 -12 6z"/>
<path d="M3712 5176 l-23 -79 -75 5 c-41 3 -74 4 -74 3 0 -1 27 -21 60 -45 33
-24 60 -46 60 -49 0 -3 -12 -26 -25 -50 -39 -67 -22 -60 30 13 26 36 51 66 56
66 6 0 7 5 4 10 -3 6 -11 10 -16 10 -6 0 -8 -4 -5 -9 3 -4 -2 -15 -12 -22 -15
-12 -21 -10 -55 23 l-38 38 54 0 55 0 13 53 12 52 16 -47 c9 -26 19 -49 22
-52 3 -3 26 -6 52 -7 l46 -2 -27 -21 c-60 -46 -70 -67 -44 -94 12 -13 17 -42
7 -42 -2 0 -20 14 -39 31 -20 17 -41 27 -47 24 -6 -4 -3 4 6 19 10 14 13 26 7
26 -5 0 -36 -44 -67 -97 -120 -202 -214 -323 -404 -515 -63 -65 -113 -119
-111 -121 3 -2 26 -14 52 -26 l46 -22 45 48 c138 148 289 373 387 575 l47 97
61 -49 c34 -28 64 -50 67 -50 2 0 -4 19 -14 43 -40 92 -39 98 29 147 33 24 60
44 60 44 0 1 -33 0 -74 -2 l-73 -4 -24 78 -25 79 -22 -79z m-83 -363 c-23 -43
-46 -84 -52 -91 -5 -7 -17 -26 -26 -42 -68 -125 -185 -285 -202 -275 -5 3 -6
0 -3 -8 3 -8 -16 -38 -46 -70 l-52 -57 -31 16 c-18 9 -33 17 -34 18 -1 1 47
53 107 116 61 63 138 150 172 192 36 43 69 75 76 73 7 -3 10 0 6 6 -3 6 3 20
13 32 11 12 23 29 26 38 7 21 76 129 83 129 2 0 -14 -35 -37 -77z"/>
<path d="M3389 4503 c-13 -16 -12 -17 4 -4 9 7 17 15 17 17 0 8 -8 3 -21 -13z"/>
<path d="M3406 4492 l-19 -27 24 22 c12 12 21 24 18 27 -2 2 -13 -8 -23 -22z"/>
<path d="M3300 4381 c0 -6 4 -13 10 -16 6 -3 7 1 4 9 -7 18 -14 21 -14 7z"/>
<path d="M3255 4341 c-3 -5 -2 -12 3 -15 5 -3 9 1 9 9 0 17 -3 19 -12 6z"/>
<path d="M1600 5220 c-8 -5 -10 -10 -5 -10 6 0 17 5 25 10 8 5 11 10 5 10 -5
0 -17 -5 -25 -10z"/>
<path d="M2976 5131 c-32 -35 -154 -111 -259 -161 -117 -56 -295 -107 -409
-116 l-78 -7 0 -153 c0 -166 10 -259 42 -403 33 -149 98 -326 140 -378 19 -24
226 67 371 163 l99 66 -84 34 c-106 44 -274 137 -313 175 -37 35 -48 37 -35 7
5 -13 17 -52 26 -88 17 -71 73 -214 81 -206 2 2 -7 41 -21 86 -14 44 -26 83
-26 86 0 3 15 -5 32 -18 18 -13 63 -39 101 -59 l68 -35 -99 -52 c-55 -29 -102
-52 -105 -52 -7 0 -50 117 -81 220 -32 106 -58 255 -60 339 -1 59 -2 61 -11
30 -5 -19 -14 -40 -19 -48 -6 -10 -6 -12 2 -7 7 4 12 1 12 -8 0 -9 -6 -16 -12
-16 -10 0 -9 -3 1 -9 8 -5 14 -28 15 -54 0 -25 4 -43 9 -40 4 2 8 -11 9 -29 2
-58 7 -81 28 -153 11 -38 18 -76 15 -83 -2 -7 2 -15 10 -18 9 -4 15 -19 15
-36 0 -19 4 -27 12 -22 7 4 8 3 4 -5 -4 -6 2 -23 13 -37 12 -15 21 -32 21 -39
0 -7 7 -18 15 -25 19 -16 20 -31 1 -24 -8 3 -17 1 -21 -5 -3 -6 -11 -11 -17
-11 -6 0 -3 9 7 20 17 18 17 20 2 14 -10 -3 -17 -1 -17 6 0 6 -5 8 -11 4 -8
-5 -8 -8 0 -14 17 -10 2 -42 -18 -38 -9 2 -15 11 -15 21 1 9 -2 14 -7 11 -8
-5 -10 0 -13 39 -1 6 -7 17 -14 22 -26 21 -105 283 -97 324 3 14 2 19 -2 11
-13 -29 -31 136 -32 297 -1 181 -8 166 80 178 139 18 208 39 359 105 118 52
185 90 251 142 l51 40 -3 -34 c-4 -43 -9 -53 -21 -37 -8 11 -9 11 -5 -1 2 -8
10 -14 17 -12 7 2 10 -3 7 -12 -4 -9 -2 -18 3 -21 6 -4 10 21 10 60 l0 67 37
-32 c52 -46 160 -114 215 -135 26 -9 45 -21 43 -25 -3 -4 1 -7 8 -6 20 2 167
-56 162 -64 -2 -4 7 -6 21 -4 25 2 25 2 8 -17 -21 -24 -31 -25 -13 -1 13 15
12 16 -3 4 -10 -8 -16 -19 -15 -25 1 -7 -4 -11 -11 -9 -8 1 -11 -2 -8 -7 3 -5
0 -14 -8 -20 -25 -21 -275 88 -393 172 l-41 29 -44 -29 c-124 -84 -299 -163
-361 -163 -28 0 -37 -3 -28 -9 10 -6 4 -12 -22 -20 -19 -7 -38 -19 -41 -27 -3
-8 -10 -13 -14 -10 -5 3 -9 -20 -9 -51 0 -49 5 -63 38 -110 34 -50 110 -117
134 -118 6 -1 9 -7 7 -14 -1 -7 2 -10 8 -6 13 8 52 -19 42 -30 -4 -5 -1 -5 6
-1 6 4 29 -2 50 -13 36 -19 337 -149 357 -155 40 -10 114 -50 108 -59 -3 -6
-1 -7 5 -3 15 9 38 -4 93 -50 28 -23 36 -34 22 -30 -13 4 -24 2 -29 -5 -5 -8
-3 -9 5 -5 7 5 21 0 33 -11 12 -10 18 -12 14 -5 -4 6 -3 12 2 12 21 0 21 -15
0 -38 -13 -14 -17 -22 -10 -18 7 4 12 2 12 -6 0 -10 3 -9 9 2 6 8 8 17 5 21
-11 19 15 16 32 -3 11 -12 14 -18 7 -15 -6 4 -15 2 -19 -4 -4 -7 -3 -9 2 -6
18 11 34 -9 44 -54 22 -102 22 -105 11 -89 -8 11 -9 2 -5 -37 4 -36 1 -60 -10
-80 -19 -36 -63 -83 -78 -83 -6 0 -9 -3 -5 -6 7 -8 -54 -60 -66 -56 -5 1 -6
-2 -2 -7 7 -12 -64 -63 -77 -55 -5 3 -7 0 -6 -8 2 -8 -8 -14 -24 -16 -19 -2
-25 -8 -21 -18 5 -13 -8 -19 -30 -15 -5 1 -6 -2 -3 -7 8 -13 -39 -32 -77 -32
-24 0 -28 -3 -17 -10 16 -10 15 -11 -23 -28 -23 -10 -33 -9 -58 3 -16 9 -27
20 -24 25 4 6 -6 10 -22 10 -37 0 -54 12 -56 38 0 11 -5 18 -9 16 -5 -3 -6 -9
-3 -14 3 -4 -4 -6 -14 -3 -11 3 -18 10 -17 16 2 7 1 9 -1 5 -2 -3 -29 12 -58
34 -30 22 -52 45 -48 51 3 6 1 7 -6 3 -7 -5 -31 11 -63 43 l-50 50 26 7 c14 3
26 11 26 18 0 6 5 4 10 -4 8 -13 10 -12 10 4 0 18 1 18 20 1 11 -10 20 -24 20
-31 0 -7 5 -16 10 -19 6 -4 9 -2 8 3 -5 16 15 11 44 -11 15 -11 25 -24 22 -28
-3 -5 3 -6 12 -2 14 5 16 3 11 -12 -6 -15 -5 -16 8 -5 12 10 16 9 21 -3 3 -9
14 -19 25 -22 11 -4 17 -10 14 -15 -3 -4 3 -10 13 -13 9 -2 25 -8 35 -12 14
-6 16 -4 10 11 -3 9 -2 15 3 12 5 -4 8 60 7 158 l-2 165 24 11 c14 6 25 15 25
21 0 5 6 7 14 4 8 -3 13 1 12 10 0 9 5 18 12 20 10 4 12 -34 10 -191 -3 -173
-1 -197 13 -201 21 -7 49 3 76 28 13 11 29 17 38 13 9 -3 14 -2 11 3 -8 12 53
63 66 55 6 -4 9 -3 5 2 -6 10 20 50 31 47 4 -2 8 2 8 7 1 6 2 13 3 16 0 4 9 0
19 -7 11 -9 13 -9 6 -1 -8 10 -5 25 13 59 26 53 29 80 9 126 -12 29 -96 136
-96 123 0 -3 -32 15 -71 40 -38 25 -134 73 -212 106 -268 113 -434 199 -421
220 3 5 0 7 -8 6 -7 -2 -12 4 -10 12 2 8 0 12 -3 8 -11 -11 -47 11 -39 24 5 7
2 8 -6 3 -10 -6 -12 -4 -6 11 4 10 4 15 0 11 -4 -4 -20 5 -36 20 -27 26 -27
27 -10 47 15 18 15 19 0 8 -15 -12 -19 -9 -33 18 -24 47 -30 29 -7 -23 39 -88
153 -188 297 -260 39 -19 134 -62 213 -96 271 -116 372 -178 418 -256 45 -78
25 -146 -72 -234 -47 -44 -165 -131 -176 -131 -2 0 -2 97 0 215 1 118 0 215
-3 215 -3 0 -34 -24 -70 -52 l-65 -53 2 -163 c2 -89 0 -162 -3 -162 -9 0 -151
110 -191 148 l-37 35 -65 -28 c-36 -15 -66 -31 -66 -36 0 -30 270 -235 383
-290 l47 -23 48 23 c98 47 249 157 338 246 82 81 93 96 103 143 26 124 1 210
-88 299 -72 72 -156 118 -427 234 -117 50 -248 113 -292 140 -133 82 -201 179
-173 247 13 32 28 40 136 79 113 41 210 88 288 141 l73 49 38 -33 c58 -50 331
-175 379 -174 7 1 37 23 67 51 45 40 52 51 40 59 -8 5 -21 10 -28 10 -67 1
-346 134 -442 211 -33 27 -62 49 -64 49 -1 0 -11 -9 -20 -19z m-442 -852 c-3
-5 3 -6 12 -2 12 4 15 3 10 -6 -6 -8 -2 -11 10 -9 12 2 18 -2 16 -10 -1 -8 2
-11 7 -8 9 6 226 -87 246 -105 5 -6 2 -9 -9 -9 -9 0 -14 -4 -11 -10 3 -5 0
-10 -8 -10 -8 0 -20 -7 -27 -15 -8 -9 -21 -13 -34 -10 -15 5 -17 4 -7 -3 8 -6
9 -12 3 -16 -6 -3 -13 -3 -16 2 -6 11 -64 3 -72 -10 -3 -5 5 -6 20 -2 32 8 34
-9 4 -23 -94 -44 -124 -59 -129 -66 -8 -11 -42 30 -34 43 5 8 11 7 23 -2 9 -7
13 -8 10 -3 -4 6 31 30 77 54 89 47 103 62 79 85 -8 9 -14 19 -14 23 1 4 -4 9
-11 12 -7 2 -9 -1 -4 -9 6 -9 3 -9 -14 -1 -25 14 -28 23 -3 15 14 -5 14 -4 2
4 -8 6 -19 7 -25 3 -6 -5 -29 4 -55 20 -25 16 -40 29 -35 29 6 0 2 5 -8 11 -9
5 -21 8 -26 4 -5 -3 -12 5 -16 17 -19 65 -20 62 14 37 16 -12 28 -26 25 -30z
m181 -560 c11 -17 -1 -21 -15 -4 -8 9 -8 15 -2 15 6 0 14 -5 17 -11z"/>
<path d="M2600 4216 c0 -2 8 -10 18 -17 15 -13 16 -12 3 4 -13 16 -21 21 -21
13z"/>
<path d="M2638 4037 c14 -6 26 -7 32 -1 5 5 -4 9 -23 10 -30 1 -30 1 -9 -9z"/>
<path d="M4744 5086 c1 -8 5 -18 8 -22 4 -3 5 1 4 10 -1 8 -5 18 -8 22 -4 3
-5 -1 -4 -10z"/>
<path d="M1243 5075 c0 -8 4 -12 9 -9 5 3 6 10 3 15 -9 13 -12 11 -12 -6z"/>
<path d="M1413 5073 c4 -3 1 -13 -6 -22 -11 -14 -10 -14 5 -2 16 12 16 31 1
31 -4 0 -3 -3 0 -7z"/>
<path d="M3753 5025 c0 -8 4 -12 9 -9 5 3 6 10 3 15 -9 13 -12 11 -12 -6z"/>
<path d="M1453 5013 c1 -17 5 -20 19 -12 10 5 18 12 18 15 0 3 -5 2 -11 -2 -6
-3 -15 0 -20 7 -6 10 -8 8 -6 -8z"/>
<path d="M1385 4950 c-3 -5 -3 -10 1 -10 4 0 -1 -7 -12 -16 -18 -15 -18 -15 0
-6 11 5 21 17 22 26 3 18 -2 21 -11 6z"/>
<path d="M2858 4943 c7 -3 16 -2 19 1 4 3 -2 6 -13 5 -11 0 -14 -3 -6 -6z"/>
<path d="M1096 4928 c3 -5 10 -6 15 -3 13 9 11 12 -6 12 -8 0 -12 -4 -9 -9z"/>
<path d="M1207 4920 c-14 -13 -15 -20 -6 -26 8 -5 10 -3 4 6 -6 9 -4 12 6 8
10 -4 15 1 16 13 2 23 3 23 -20 -1z"/>
<path d="M1506 4913 c-6 -14 -5 -15 5 -6 7 7 10 15 7 18 -3 3 -9 -2 -12 -12z"/>
<path d="M1077 4909 c7 -7 15 -10 18 -7 3 3 -2 9 -12 12 -14 6 -15 5 -6 -5z"/>
<path d="M1263 4901 c0 -11 5 -18 9 -15 4 3 5 11 1 19 -7 21 -12 19 -10 -4z"/>
<path d="M2650 4886 c7 -7 13 -7 20 0 6 6 3 10 -10 10 -13 0 -16 -4 -10 -10z"/>
<path d="M3380 4890 c8 -5 20 -10 25 -10 6 0 3 5 -5 10 -8 5 -19 10 -25 10 -5
0 -3 -5 5 -10z"/>
<path d="M2699 4876 c6 -7 7 -17 3 -22 -4 -4 1 -2 11 5 21 17 21 18 -4 24 -15
4 -18 2 -10 -7z"/>
<path d="M4950 4886 c0 -2 8 -10 18 -17 15 -13 16 -12 3 4 -13 16 -21 21 -21
13z"/>
<path d="M3518 4802 c-116 -137 -290 -293 -441 -395 l-67 -46 42 -19 43 -19
50 46 c84 76 230 233 230 247 0 7 4 16 9 21 5 5 6 2 2 -7 -10 -19 36 32 130
144 65 78 84 106 71 106 -2 0 -33 -35 -69 -78z m-288 -326 c-126 -126 -135
-133 -158 -123 -22 10 -23 12 -7 22 29 17 174 133 233 185 31 28 58 50 61 50
3 0 -55 -60 -129 -134z"/>
<path d="M3106 4391 c-4 -5 -2 -12 3 -15 5 -4 12 -2 15 3 4 5 2 12 -3 15 -5 4
-12 2 -15 -3z"/>
<path d="M1283 4855 c0 -8 4 -12 9 -9 5 3 6 10 3 15 -9 13 -12 11 -12 -6z"/>
<path d="M2643 4835 c0 -7 6 -11 14 -8 7 3 13 6 13 8 0 2 -6 5 -13 8 -8 3 -14
-1 -14 -8z"/>
<path d="M2997 4840 c-3 -8 -13 -39 -22 -67 l-17 -53 -66 -1 -67 0 29 -22 c16
-12 40 -31 54 -43 l25 -20 -21 -59 c-12 -32 -20 -61 -17 -63 2 -2 23 12 46 32
24 20 49 36 56 36 8 0 35 -16 60 -35 25 -19 48 -34 50 -32 1 2 -6 30 -17 62
-11 32 -20 60 -20 61 0 2 26 21 57 41 l56 38 -70 3 -70 3 -21 67 c-11 37 -22
60 -25 52z m42 -134 c7 -9 18 -13 23 -10 15 10 68 11 68 2 0 -4 -4 -8 -9 -8
-5 0 -23 -11 -39 -25 -31 -26 -32 -36 -6 -100 6 -14 -3 -10 -37 16 -40 33 -45
35 -61 20 -50 -48 -57 -47 -37 6 10 26 8 31 -27 61 l-37 32 45 0 c48 0 51 3
74 80 7 23 8 22 18 -16 6 -23 17 -49 25 -58z"/>
<path d="M3674 4762 c-39 -82 -42 -93 -47 -202 -6 -135 -36 -289 -77 -402 -33
-90 -37 -113 -16 -83 41 60 103 333 113 504 4 74 11 113 23 131 9 14 24 42 34
63 17 38 30 50 20 20 -5 -14 -4 -15 4 -4 6 8 8 20 5 28 -3 7 -1 13 5 13 5 0
12 -6 15 -14 10 -25 -3 -319 -18 -416 -29 -179 -113 -429 -172 -508 l-19 -26
3 54 c4 45 -1 65 -25 112 -15 31 -24 54 -18 51 5 -4 7 1 3 11 -8 21 -10 352
-3 365 4 5 1 13 -5 17 -7 4 -10 3 -6 -2 3 -5 -29 -52 -71 -105 -65 -80 -77
-101 -77 -132 0 -32 7 -42 60 -85 111 -89 150 -212 107 -334 -11 -32 -19 -58
-17 -58 11 0 115 179 146 250 85 198 119 370 126 643 l6 197 -29 -1 c-26 0
-33 -8 -70 -87z m-192 -539 l3 -122 -26 25 c-15 14 -26 33 -24 42 3 22 -4 34
-16 26 -6 -3 -5 -12 3 -22 11 -13 11 -14 -7 -4 -74 42 -73 70 3 168 l57 75 2
-33 c2 -18 4 -88 5 -155z"/>
<path d="M3450 4355 c-7 -9 -8 -15 -2 -15 5 0 12 7 16 15 3 8 4 15 2 15 -2 0
-9 -7 -16 -15z"/>
<path d="M959 4803 c-13 -16 -12 -17 4 -4 9 7 17 15 17 17 0 8 -8 3 -21 -13z"/>
<path d="M2290 4810 c0 -6 7 -10 15 -10 8 0 15 2 15 4 0 2 -7 6 -15 10 -8 3
-15 1 -15 -4z"/>
<path d="M2348 4803 c12 -2 32 -2 45 0 12 2 2 4 -23 4 -25 0 -35 -2 -22 -4z"/>
<path d="M2495 4787 c-15 -12 -16 -15 -4 -22 8 -5 11 -5 7 0 -4 4 0 14 10 21
23 18 11 18 -13 1z"/>
<path d="M929 4778 c-6 -21 -5 -37 2 -32 5 3 6 10 3 16 -5 8 -1 9 10 5 10 -4
15 -3 11 3 -5 9 -24 14 -26 8z"/>
<path d="M1081 4766 c-7 -8 -20 -12 -29 -9 -14 6 -14 5 -2 -8 12 -14 16 -13
33 4 10 10 17 21 14 23 -2 2 -10 -2 -16 -10z"/>
<path d="M1054 4629 c-8 -14 14 -19 25 -6 8 10 7 14 -5 14 -8 0 -17 -4 -20 -8z"/>
<path d="M2331 4624 c0 -11 3 -14 6 -6 3 7 2 16 -1 19 -3 4 -6 -2 -5 -13z"/>
<path d="M926 4598 c3 -5 10 -6 15 -3 13 9 11 12 -6 12 -8 0 -12 -4 -9 -9z"/>
<path d="M2486 4572 c-3 -5 1 -9 9 -9 8 0 12 4 9 9 -3 4 -7 8 -9 8 -2 0 -6 -4
-9 -8z"/>
<path d="M966 4548 c3 -5 10 -6 15 -3 13 9 11 12 -6 12 -8 0 -12 -4 -9 -9z"/>
<path d="M2052 4470 c-133 -86 -212 -151 -333 -277 -178 -185 -310 -403 -405
-673 -19 -52 -34 -98 -34 -103 0 -4 26 -7 58 -6 l58 2 33 96 c34 101 119 277
175 364 113 177 304 370 473 479 l82 53 -1 63 c0 34 -4 62 -7 62 -3 0 -48 -27
-99 -60z m88 -15 c0 -49 -1 -50 -32 -34 -23 12 -49 -3 -27 -16 8 -5 10 -4 5 3
-8 14 3 15 22 3 9 -5 2 -15 -27 -34 -22 -15 -47 -27 -56 -27 -8 0 -14 -4 -12
-8 1 -5 -32 -36 -74 -70 -43 -33 -80 -65 -84 -71 -3 -6 -15 -11 -26 -11 -12 0
-17 -4 -14 -11 4 -5 -15 -33 -42 -62 -27 -29 -58 -65 -70 -80 -12 -16 -27 -26
-32 -22 -6 3 -9 0 -6 -7 3 -8 -2 -22 -11 -33 -8 -11 -12 -14 -8 -6 5 9 3 12
-5 7 -6 -4 -9 -11 -7 -15 8 -12 -24 -52 -36 -45 -7 4 -8 2 -4 -4 4 -6 -1 -23
-10 -37 -13 -20 -19 -23 -26 -13 -7 9 -8 8 -4 -5 6 -19 -82 -207 -98 -207 -4
0 -5 8 -1 18 5 13 4 14 -6 5 -9 -9 -9 -16 -1 -25 8 -10 3 -30 -18 -78 -16 -36
-32 -80 -36 -97 -4 -21 -12 -33 -23 -34 -9 0 -26 -2 -38 -3 -28 -3 -28 0 -3
66 11 29 20 60 20 69 0 37 162 338 235 438 108 147 285 318 425 414 63 42 118
77 122 77 5 0 8 -20 8 -45z"/>
<path d="M1991 4387 c2 -1 11 -8 21 -15 12 -10 18 -10 24 -1 4 7 3 9 -4 5 -6
-3 -13 -2 -17 4 -3 5 -11 10 -17 10 -6 0 -9 -1 -7 -3z"/>
<path d="M1955 4370 c-3 -6 1 -7 9 -4 18 7 21 14 7 14 -6 0 -13 -4 -16 -10z"/>
<path d="M1960 4350 c-9 -6 -10 -10 -3 -10 6 0 15 5 18 10 8 12 4 12 -15 0z"/>
<path d="M1985 4340 c-3 -5 1 -10 10 -10 9 0 13 5 10 10 -3 6 -8 10 -10 10 -2
0 -7 -4 -10 -10z"/>
<path d="M1900 4295 c0 -7 30 -13 34 -7 3 4 -4 9 -15 9 -10 1 -19 0 -19 -2z"/>
<path d="M1816 4248 c3 -4 11 -5 19 -1 21 7 19 12 -4 10 -11 0 -18 -5 -15 -9z"/>
<path d="M1750 4156 c0 -2 8 -10 18 -17 15 -13 16 -12 3 4 -13 16 -21 21 -21
13z"/>
<path d="M1734 4116 c-10 -8 -17 -16 -14 -19 3 -2 14 4 24 14 23 22 18 25 -10
5z"/>
<path d="M1679 4078 c11 -15 11 -21 1 -33 -7 -9 -8 -15 -2 -15 19 0 23 33 5
49 -16 15 -16 15 -4 -1z"/>
<path d="M1580 3971 c0 -7 -5 -9 -12 -5 -7 5 -8 3 -3 -5 5 -9 10 -10 18 -2 6
6 8 14 4 18 -4 3 -7 1 -7 -6z"/>
<path d="M1555 3930 c3 -5 8 -10 11 -10 2 0 4 5 4 10 0 6 -5 10 -11 10 -5 0
-7 -4 -4 -10z"/>
<path d="M1480 3825 c0 -8 4 -15 10 -15 5 0 7 7 4 15 -4 8 -8 15 -10 15 -2 0
-4 -7 -4 -15z"/>
<path d="M1419 3688 c-1 -7 -1 -17 0 -21 1 -4 -6 -22 -15 -40 l-15 -32 20 25
c11 13 19 37 19 52 -1 28 -7 38 -9 16z"/>
<path d="M1343 3485 c0 -22 2 -30 4 -17 2 12 2 30 0 40 -3 9 -5 -1 -4 -23z"/>
<path d="M3844 4474 c-6 -54 -5 -59 17 -74 84 -54 233 -175 307 -249 163 -161
307 -383 383 -588 62 -168 51 -153 115 -153 47 0 55 3 50 16 -3 9 -9 28 -13
42 -10 44 -69 194 -107 276 -69 147 -197 333 -321 465 -66 70 -223 198 -311
251 -38 24 -79 49 -91 57 -21 14 -22 13 -29 -43z m125 -36 c78 -52 226 -171
277 -223 8 -8 13 -19 9 -25 -3 -5 0 -8 7 -5 15 5 95 -87 180 -207 93 -131 248
-465 248 -535 0 -5 -17 -10 -37 -11 l-38 -2 -18 62 c-27 93 -138 318 -203 411
-68 98 -165 215 -228 276 -25 24 -42 49 -39 54 3 6 1 7 -6 3 -6 -4 -31 10 -58
33 -25 23 -81 65 -124 93 -77 52 -78 54 -79 96 0 23 4 42 9 42 5 0 50 -28 100
-62z"/>
<path d="M4571 3623 c-1 -17 16 -25 25 -12 4 7 3 9 -4 5 -5 -3 -13 0 -15 6 -4
9 -6 10 -6 1z"/>
<path d="M2330 4469 c0 -16 4 -28 9 -25 8 5 3 56 -5 56 -2 0 -4 -14 -4 -31z"/>
<path d="M1015 4419 c-4 -6 -5 -12 -2 -15 2 -3 7 2 10 11 7 17 1 20 -8 4z"/>
<path d="M2325 4391 c0 -22 3 -37 7 -33 13 14 13 72 1 72 -5 0 -8 -18 -8 -39z"/>
<path d="M776 4365 c-9 -26 -7 -32 5 -12 6 10 9 21 6 23 -2 3 -7 -2 -11 -11z"/>
<path d="M2770 4360 c8 -5 22 -10 30 -10 13 0 13 1 0 10 -8 5 -22 10 -30 10
-13 0 -13 -1 0 -10z"/>
<path d="M740 4325 c-6 -8 -10 -19 -8 -24 1 -6 8 1 15 14 13 28 11 31 -7 10z"/>
<path d="M834 4299 c-3 -6 -2 -15 3 -20 5 -5 9 -1 9 11 0 23 -2 24 -12 9z"/>
<path d="M2790 4280 c8 -5 20 -10 25 -10 6 0 3 5 -5 10 -8 5 -19 10 -25 10 -5
0 -3 -5 5 -10z"/>
<path d="M750 4171 c0 -6 4 -13 10 -16 6 -3 7 1 4 9 -7 18 -14 21 -14 7z"/>
<path d="M556 4158 c3 -5 10 -6 15 -3 13 9 11 12 -6 12 -8 0 -12 -4 -9 -9z"/>
<path d="M1606 4148 c3 -5 10 -6 15 -3 13 9 11 12 -6 12 -8 0 -12 -4 -9 -9z"/>
<path d="M2237 4073 c-63 -137 -72 -206 -36 -280 39 -81 133 -107 263 -73 148
38 327 136 520 284 l79 61 -59 27 c-32 15 -64 26 -69 24 -6 -2 -46 -29 -90
-61 -44 -31 -138 -86 -208 -120 -170 -84 -253 -102 -322 -69 -62 29 -81 116
-49 223 8 29 14 55 11 57 -2 2 -20 -31 -40 -73z m719 17 c6 -6 21 -12 34 -15
12 -2 25 -6 27 -9 7 -7 -7 -26 -18 -26 -6 0 -7 5 -3 12 4 7 3 8 -4 4 -6 -4 -8
-14 -5 -23 5 -13 2 -15 -11 -10 -9 4 -15 3 -12 -2 6 -9 -8 -19 -134 -106 -47
-32 -90 -58 -97 -58 -7 0 -13 -3 -13 -6 0 -12 -58 -31 -76 -25 -14 4 -15 3 -5
-4 10 -7 6 -13 -19 -26 -18 -8 -37 -13 -43 -9 -5 3 -7 1 -4 -4 6 -10 -3 -14
-63 -30 -8 -2 -35 -4 -60 -4 -36 0 -41 -2 -25 -9 20 -10 3 -9 -65 6 -14 2 -44
5 -68 5 -44 1 -71 26 -56 51 4 7 3 8 -4 4 -28 -17 -35 144 -8 171 6 6 11 -35
8 -72 -1 -12 1 -15 5 -9 6 8 14 3 27 -14 11 -14 14 -22 7 -17 -10 6 -11 3 -2
-13 10 -18 21 -20 138 -20 81 0 117 3 98 8 -22 6 -25 8 -10 10 11 1 23 2 28 1
4 0 7 3 7 8 0 13 68 34 86 27 9 -3 12 -2 9 4 -3 6 2 13 12 17 10 3 26 13 35
21 10 8 24 12 33 9 8 -4 14 -2 12 3 -1 6 18 22 42 36 24 15 41 23 38 18 -3 -6
4 -11 16 -11 18 -2 19 0 7 8 -12 8 -9 15 20 39 19 17 39 30 46 30 6 0 19 9 29
20 21 23 27 24 41 10z m-652 -238 c3 -5 -1 -9 -9 -9 -8 0 -12 4 -9 9 3 4 7 8
9 8 2 0 6 -4 9 -8z m73 -128 c-3 -3 -12 -4 -19 -1 -8 3 -5 6 6 6 11 1 17 -2
13 -5z"/>
<path d="M2875 3980 c5 -9 2 -10 -13 -6 -11 4 -23 3 -25 -2 -6 -9 38 -10 48
-1 3 4 1 10 -6 15 -8 5 -10 3 -4 -6z"/>
<path d="M2760 3960 c-9 -6 -10 -10 -3 -10 6 0 15 5 18 10 8 12 4 12 -15 0z"/>
<path d="M2725 3900 c-3 -6 1 -7 9 -4 18 7 21 14 7 14 -6 0 -13 -4 -16 -10z"/>
<path d="M2740 3880 c0 -5 5 -10 10 -10 6 0 10 5 10 10 0 6 -4 10 -10 10 -5 0
-10 -4 -10 -10z"/>
<path d="M2559 3859 l-24 -20 28 17 c15 9 27 18 27 20 0 8 -8 4 -31 -17z"/>
<path d="M3117 4139 c7 -7 15 -10 18 -7 3 3 -2 9 -12 12 -14 6 -15 5 -6 -5z"/>
<path d="M739 4113 c-13 -16 -12 -17 4 -4 9 7 17 15 17 17 0 8 -8 3 -21 -13z"/>
<path d="M3283 4115 c0 -8 4 -12 9 -9 5 3 6 10 3 15 -9 13 -12 11 -12 -6z"/>
<path d="M503 4075 c0 -8 4 -12 9 -9 5 3 6 10 3 15 -9 13 -12 11 -12 -6z"/>
<path d="M1536 4072 c-3 -5 1 -9 9 -9 8 0 12 4 9 9 -3 4 -7 8 -9 8 -2 0 -6 -4
-9 -8z"/>
<path d="M2170 4061 c0 -6 4 -13 10 -16 6 -3 7 1 4 9 -7 18 -14 21 -14 7z"/>
<path d="M3140 3850 l0 -172 70 69 c58 57 70 75 70 102 0 54 -40 110 -112 156
l-28 17 0 -172z m102 65 c32 -41 24 -85 -28 -139 -25 -26 -47 -46 -49 -44 -3
3 -5 142 -4 241 0 15 4 14 31 -8 17 -15 40 -37 50 -50z"/>
<path d="M3221 3904 c0 -11 3 -14 6 -6 3 7 2 16 -1 19 -3 4 -6 -2 -5 -13z"/>
<path d="M3581 3984 c0 -11 3 -14 6 -6 3 7 2 16 -1 19 -3 4 -6 -2 -5 -13z"/>
<path d="M2850 3845 c-7 -8 -30 -25 -51 -37 -22 -12 -38 -26 -36 -32 2 -5 26
-29 55 -54 l52 -45 0 92 c0 50 -2 91 -4 91 -2 0 -9 -7 -16 -15z m0 -60 c0 -14
-6 -25 -12 -26 -10 0 -10 -2 0 -6 6 -2 9 -9 6 -15 -3 -5 -17 0 -30 13 l-25 23
23 18 c31 24 38 22 38 -7z"/>
<path d="M2808 3773 c7 -3 16 -2 19 1 4 3 -2 6 -13 5 -11 0 -14 -3 -6 -6z"/>
<path d="M512 3790 c0 -19 2 -27 5 -17 2 9 2 25 0 35 -3 9 -5 1 -5 -18z"/>
<path d="M3345 3769 c-4 -6 -5 -12 -2 -15 2 -3 7 2 10 11 7 17 1 20 -8 4z"/>
<path d="M2195 3728 c18 -30 44 -44 41 -23 -1 8 -6 18 -11 22 -4 4 -5 2 -1 -4
12 -21 -4 -15 -25 10 l-20 22 16 -27z"/>
<path d="M1536 3692 c-3 -5 1 -9 9 -9 8 0 12 4 9 9 -3 4 -7 8 -9 8 -2 0 -6 -4
-9 -8z"/>
<path d="M3205 3629 c-4 -6 2 -19 14 -30 23 -22 39 -26 22 -6 -6 8 -8 17 -4
21 4 4 -1 4 -12 0 -15 -6 -17 -4 -12 9 7 19 2 23 -8 6z"/>
<path d="M2730 3592 c0 -4 10 -13 23 -21 22 -14 22 -14 3 8 -20 22 -26 25 -26
13z"/>
<path d="M532 3500 c0 -14 2 -19 5 -12 2 6 2 18 0 25 -3 6 -5 1 -5 -13z"/>
<path d="M2968 3433 c7 -3 16 -2 19 1 4 3 -2 6 -13 5 -11 0 -14 -3 -6 -6z"/>
<path d="M1280 3295 c-360 -81 -543 -460 -380 -790 79 -160 244 -271 442 -296
169 -21 324 17 470 114 l48 32 0 233 0 232 -230 0 -230 0 0 -95 0 -95 115 0
115 0 0 -82 0 -83 -48 -20 c-36 -16 -69 -20 -147 -20 -87 0 -107 3 -156 26
-71 34 -125 87 -158 158 -22 48 -26 70 -26 151 0 84 3 102 28 152 31 62 84
115 149 149 33 18 65 24 138 27 113 5 180 -16 249 -75 l43 -36 76 74 c42 41
78 75 81 76 10 6 -37 48 -93 85 -125 81 -336 117 -486 83z m325 -34 c33 -10
50 -20 38 -20 -13 -1 -23 -5 -23 -10 0 -6 12 -6 28 -2 31 8 62 4 62 -9 0 -5
10 -12 22 -16 23 -7 48 -28 48 -39 0 -3 -5 -3 -12 1 -7 4 -8 3 -4 -5 6 -9 11
-9 21 -1 10 9 15 4 20 -21 6 -25 3 -35 -10 -45 -10 -8 -22 -11 -27 -8 -5 3 -7
1 -6 -3 2 -5 -12 -26 -29 -47 -18 -20 -33 -33 -33 -29 0 5 -14 17 -31 27 -19
11 -28 23 -25 32 3 9 1 12 -5 9 -5 -4 -30 3 -54 14 -25 12 -48 20 -52 19 -5
-1 -34 2 -66 6 -53 7 -128 -2 -177 -21 -8 -4 -17 -7 -20 -8 -3 -1 -13 -5 -22
-9 -10 -5 -24 -6 -31 -3 -8 3 -14 -1 -14 -9 0 -7 5 -11 11 -8 6 3 4 0 -5 -8
-62 -52 -77 -68 -96 -109 -13 -25 -26 -61 -30 -80 -5 -27 -8 -30 -13 -14 -4
11 -8 -27 -9 -84 -1 -57 -3 -107 -6 -111 -2 -4 2 -15 9 -25 12 -16 13 -14 9
16 -3 31 -2 30 16 -15 11 -27 18 -53 15 -58 -3 -5 -1 -7 4 -6 6 2 11 0 11 -4
1 -4 21 -27 46 -51 24 -25 42 -47 39 -50 -3 -3 0 -8 7 -13 8 -4 10 -3 5 4 -10
17 -1 15 36 -8 29 -17 25 -27 -7 -20 -5 1 -6 -2 -2 -7 5 -4 22 -8 39 -9 23 -1
27 1 17 8 -10 7 -8 7 6 2 26 -11 266 -14 260 -4 -3 5 3 7 12 6 10 -2 30 9 46
23 25 24 27 31 27 113 0 55 -4 89 -12 94 -6 4 -57 7 -114 7 l-103 -1 0 76 c0
57 2 73 11 64 7 -7 17 -12 23 -12 5 0 3 5 -5 10 -10 6 46 10 168 10 166 0 182
-2 183 -17 1 -17 2 -17 6 0 2 9 11 17 18 17 12 0 14 -38 12 -222 -2 -206 -3
-223 -19 -222 -10 1 -18 -5 -18 -13 0 -8 -4 -11 -10 -8 -5 3 -10 1 -10 -4 0
-6 -17 -11 -37 -12 -30 0 -34 -2 -18 -9 17 -7 12 -12 -38 -35 -43 -20 -78 -28
-140 -31 -45 -2 -112 -7 -149 -10 -46 -4 -68 -2 -68 5 0 6 -21 11 -50 11 -52
0 -103 17 -94 31 3 5 -1 6 -9 4 -7 -3 -26 1 -41 9 -24 12 -25 15 -9 19 11 3 7
5 -12 6 -21 1 -47 16 -88 52 -31 28 -57 56 -57 61 0 5 4 6 10 3 6 -4 7 1 3 12
-11 31 -24 42 -40 36 -12 -5 -15 -2 -10 10 4 10 2 16 -5 14 -7 -1 -13 3 -13 8
-1 6 -6 21 -12 35 -35 83 -49 209 -34 305 7 40 7 40 13 10 4 -16 6 -70 6 -118
0 -49 3 -91 6 -95 3 -3 6 67 6 156 0 145 2 164 21 196 12 20 25 34 29 31 4 -3
6 5 2 17 -3 14 -2 19 6 14 7 -4 12 -1 12 6 0 47 175 177 211 157 10 -5 24 -9
31 -8 7 0 2 5 -12 11 l-25 10 25 10 c105 41 292 46 405 9z m-638 -807 c-9 -9
-28 6 -21 18 4 6 10 6 17 -1 6 -6 8 -13 4 -17z"/>
<path d="M1255 3240 c-16 -7 -17 -9 -3 -9 9 -1 20 4 23 9 7 11 7 11 -20 0z"/>
<path d="M1580 3236 c0 -2 7 -7 16 -10 8 -3 12 -2 9 4 -6 10 -25 14 -25 6z"/>
<path d="M1075 3170 c-10 -11 -15 -20 -11 -20 11 0 39 30 34 36 -3 2 -13 -5
-23 -16z"/>
<path d="M1378 3143 c12 -2 32 -2 45 0 12 2 2 4 -23 4 -25 0 -35 -2 -22 -4z"/>
<path d="M1463 3139 c14 -8 22 -8 30 0 8 8 3 11 -18 11 -26 -1 -28 -2 -12 -11z"/>
<path d="M997 3101 c-4 -17 -3 -21 5 -13 5 5 8 16 6 23 -3 8 -7 3 -11 -10z"/>
<path d="M936 3012 c-3 -5 1 -9 9 -9 8 0 12 4 9 9 -3 4 -7 8 -9 8 -2 0 -6 -4
-9 -8z"/>
<path d="M926 2978 c3 -5 10 -6 15 -3 13 9 11 12 -6 12 -8 0 -12 -4 -9 -9z"/>
<path d="M1071 2884 c0 -11 3 -14 6 -6 3 7 2 16 -1 19 -3 4 -6 -2 -5 -13z"/>
<path d="M1801 2744 c0 -11 3 -14 6 -6 3 7 2 16 -1 19 -3 4 -6 -2 -5 -13z"/>
<path d="M1800 2549 c-3 -116 -2 -175 5 -173 6 3 9 50 7 122 -4 215 -8 228
-12 51z"/>
<path d="M1548 2693 c7 -3 16 -2 19 1 4 3 -2 6 -13 5 -11 0 -14 -3 -6 -6z"/>
<path d="M1133 2503 c0 -11 7 -20 14 -20 10 0 10 4 1 16 -7 9 -13 18 -15 20
-1 2 -1 -5 0 -16z"/>
<path d="M1205 2420 c-3 -6 1 -7 9 -4 18 7 21 14 7 14 -6 0 -13 -4 -16 -10z"/>
<path d="M1683 2305 c0 -8 4 -12 9 -9 5 3 6 10 3 15 -9 13 -12 11 -12 -6z"/>
<path d="M1388 2243 c12 -2 30 -2 40 0 9 3 -1 5 -23 4 -22 0 -30 -2 -17 -4z"/>
<path d="M2313 3296 c-181 -42 -282 -138 -299 -287 -19 -166 90 -279 328 -339
178 -45 246 -69 267 -96 63 -80 -19 -164 -160 -164 -90 0 -250 52 -335 109
l-31 21 -52 -92 -52 -92 23 -18 c44 -33 184 -95 258 -114 101 -25 271 -25 358
1 35 10 90 35 122 55 96 63 140 138 142 244 2 129 -48 205 -175 265 -45 21
-120 49 -167 61 -193 51 -224 62 -252 90 -15 16 -28 38 -28 50 0 122 225 148
421 49 34 -16 62 -29 63 -27 12 14 96 172 96 179 0 13 -137 75 -205 93 -86 23
-246 29 -322 12z m281 -22 c81 -18 121 -32 113 -40 -3 -3 -16 -1 -29 6 -22 11
-22 10 -4 -4 13 -11 15 -16 6 -16 -7 0 -11 -2 -8 -5 2 -3 19 0 35 6 27 9 36 7
67 -13 36 -23 45 -41 26 -53 -5 -3 -21 -33 -36 -66 -15 -33 -30 -58 -33 -57
-3 2 -24 14 -46 28 -21 13 -44 26 -50 27 -5 1 -32 9 -60 16 -126 36 -235 24
-297 -32 -43 -38 -45 -103 -5 -151 15 -17 27 -29 27 -25 0 3 10 1 21 -6 17 -9
19 -13 8 -20 -9 -6 1 -9 29 -9 65 0 212 -31 205 -43 -3 -6 -1 -7 4 -4 13 8 73
-12 73 -23 0 -5 8 -8 18 -8 26 1 72 -20 72 -34 0 -9 -3 -9 -12 0 -7 7 -16 12
-22 12 -5 0 4 -11 20 -25 16 -14 37 -25 47 -25 63 0 91 -56 92 -180 0 -102 -7
-122 -63 -182 -24 -26 -50 -39 -38 -19 4 5 -5 4 -19 -2 -24 -12 -24 -12 -4
-15 19 -3 16 -7 -20 -28 -22 -14 -46 -22 -53 -18 -7 4 -8 3 -4 -4 5 -9 -38
-13 -166 -14 -95 -1 -190 -1 -211 0 -47 3 -158 40 -172 57 -6 7 -19 15 -30 17
-11 2 -19 9 -18 16 2 6 -3 9 -11 6 -7 -3 -18 2 -25 10 -11 13 -9 21 8 45 12
16 21 34 21 39 0 22 21 22 29 0 6 -14 10 -17 10 -8 1 9 -4 21 -9 26 -6 6 -8
19 -4 29 7 17 8 17 20 1 8 -11 14 -13 19 -7 3 6 1 11 -4 11 -6 0 -11 5 -11 12
0 7 16 -4 37 -23 20 -18 33 -28 29 -22 -5 9 -2 11 8 7 9 -3 13 -10 10 -15 -3
-5 2 -6 10 -3 9 3 16 1 16 -5 0 -6 9 -11 21 -11 11 0 18 -4 15 -9 -3 -4 -18
-7 -33 -5 -27 4 -27 3 -3 -4 59 -20 386 -21 375 -2 -2 3 9 15 25 25 16 11 32
33 36 48 8 39 -3 94 -22 101 -11 4 -12 10 -5 24 8 16 6 18 -12 17 -12 -1 -25
3 -29 9 -5 8 -8 7 -8 -2 0 -9 -11 -7 -40 8 -21 11 -48 20 -59 20 -12 0 -44 9
-73 20 -29 11 -64 20 -77 20 -31 0 -91 21 -91 33 0 4 -4 6 -9 3 -11 -7 -71 22
-71 35 0 5 -5 9 -10 9 -22 0 -70 55 -87 98 -24 63 -22 155 5 215 11 26 28 50
36 53 9 3 14 10 11 14 -7 11 75 71 87 64 4 -3 8 -1 8 5 0 10 64 36 125 50 65
15 192 12 269 -5z m166 -539 c5 3 11 1 14 -3 3 -5 -5 -8 -17 -7 -29 3 -29 3
-21 17 6 9 9 9 12 0 2 -7 8 -10 12 -7z m-243 -501 c-7 -8 -118 -6 -125 1 -3 3
25 5 63 5 38 0 65 -3 62 -6z"/>
<path d="M2245 3230 c27 -12 43 -12 25 0 -8 5 -22 9 -30 9 -10 0 -8 -3 5 -9z"/>
<path d="M2290 3236 c0 -2 7 -7 16 -10 8 -3 12 -2 9 4 -6 10 -25 14 -25 6z"/>
<path d="M2628 3233 c7 -3 16 -2 19 1 4 3 -2 6 -13 5 -11 0 -14 -3 -6 -6z"/>
<path d="M2206 3212 c-2 -4 4 -8 14 -8 10 0 16 4 14 8 -3 4 -9 8 -14 8 -5 0
-11 -4 -14 -8z"/>
<path d="M2147 3193 c-10 -9 -9 -23 1 -23 5 0 9 7 9 15 0 17 -1 18 -10 8z"/>
<path d="M2120 3149 c0 -5 5 -7 10 -4 6 3 10 8 10 11 0 2 -4 4 -10 4 -5 0 -10
-5 -10 -11z"/>
<path d="M2139 3133 c-13 -16 -12 -17 4 -4 9 7 17 15 17 17 0 8 -8 3 -21 -13z"/>
<path d="M2320 3138 c0 -8 230 0 240 9 2 2 -51 3 -118 2 -67 -1 -122 -6 -122
-11z"/>
<path d="M2082 3100 c0 -19 2 -27 5 -17 2 9 2 25 0 35 -3 9 -5 1 -5 -18z"/>
<path d="M2735 3070 c-4 -6 -11 -7 -17 -4 -7 4 -8 2 -4 -5 6 -9 11 -9 22 0 14
11 18 19 10 19 -3 0 -8 -5 -11 -10z"/>
<path d="M2261 2906 c7 -15 15 -23 17 -16 3 7 -3 19 -13 28 -15 16 -16 15 -4
-12z"/>
<path d="M2588 2783 c7 -3 16 -2 19 1 4 3 -2 6 -13 5 -11 0 -14 -3 -6 -6z"/>
<path d="M2216 2771 c-19 -7 -19 -8 0 -13 13 -3 21 0 21 8 0 8 -1 14 -1 13 -1
0 -10 -4 -20 -8z"/>
<path d="M2430 2690 c14 -4 32 -8 40 -9 13 -1 13 0 0 9 -8 5 -26 9 -40 9 l-25
-1 25 -8z"/>
<path d="M2831 2484 c0 -11 3 -14 6 -6 3 7 2 16 -1 19 -3 4 -6 -2 -5 -13z"/>
<path d="M2610 2416 c-9 -12 -8 -15 8 -13 12 0 18 6 15 14 -6 16 -8 16 -23 -1z"/>
<path d="M2786 2391 c-4 -7 -5 -15 -2 -18 9 -9 19 4 14 18 -4 11 -6 11 -12 0z"/>
<path d="M2035 2360 c-3 -6 1 -7 9 -4 18 7 21 14 7 14 -6 0 -13 -4 -16 -10z"/>
<path d="M2115 2310 c-3 -6 1 -7 9 -4 18 7 21 14 7 14 -6 0 -13 -4 -16 -10z"/>
<path d="M2150 2309 c0 -5 5 -7 10 -4 6 3 10 8 10 11 0 2 -4 4 -10 4 -5 0 -10
-5 -10 -11z"/>
<path d="M2666 2293 c-6 -14 -5 -15 5 -6 7 7 10 15 7 18 -3 3 -9 -2 -12 -12z"/>
<path d="M2210 2286 c0 -2 7 -7 16 -10 8 -3 12 -2 9 4 -6 10 -25 14 -25 6z"/>
<path d="M3460 3303 c-47 -8 -153 -44 -204 -70 -121 -61 -228 -212 -261 -368
-19 -89 -19 -128 1 -222 36 -177 142 -307 314 -386 126 -58 300 -70 440 -30
59 16 194 83 235 115 l25 19 0 230 0 229 -232 0 -233 0 2 -92 1 -93 116 -3
116 -3 0 -78 0 -79 -47 -22 c-107 -51 -289 -31 -376 40 -189 158 -157 464 60
571 42 21 62 24 158 24 100 0 115 -2 160 -27 28 -14 61 -38 74 -52 14 -14 29
-26 35 -26 5 0 45 34 87 77 l77 76 -46 40 c-121 101 -337 158 -502 130z m264
-33 c79 -21 130 -46 121 -60 -2 -4 6 -6 20 -5 26 3 51 -18 40 -35 -3 -5 0 -11
7 -12 74 -8 74 -15 2 -89 l-67 -68 -36 28 c-81 63 -145 84 -257 83 -134 -2
-254 -80 -311 -202 -45 -98 -44 -230 4 -316 7 -12 9 -25 5 -29 -4 -5 -2 -5 5
-2 6 4 20 -7 32 -26 29 -48 82 -92 125 -107 24 -8 34 -15 26 -20 -6 -4 52 -8
130 -9 97 -1 140 1 135 8 -3 6 1 11 10 11 9 0 13 -4 10 -10 -7 -12 -3 -12 20
-4 13 5 14 9 3 15 -10 7 -8 10 8 15 30 8 44 45 44 119 0 97 2 95 -106 95 -77
0 -94 3 -94 15 0 8 -5 15 -11 15 -5 0 -8 -4 -4 -9 3 -5 1 -12 -5 -16 -6 -4
-10 21 -10 69 0 42 2 76 5 76 2 0 9 -15 14 -32 l9 -33 1 33 1 32 194 0 194 0
-3 -214 c-1 -117 -6 -219 -10 -225 -4 -7 -14 -10 -22 -7 -8 3 -11 2 -8 -4 8
-13 -41 -43 -56 -34 -7 4 -9 3 -6 -3 13 -21 -86 -56 -173 -61 -64 -4 -78 -8
-55 -13 38 -9 -176 -4 -230 5 -55 10 -105 26 -135 44 -71 43 -99 65 -93 75 4
6 1 7 -6 3 -8 -5 -29 10 -56 40 -25 26 -43 50 -40 52 2 2 -5 14 -16 25 -11 12
-17 27 -14 35 2 7 0 10 -5 7 -9 -5 -12 1 -9 21 0 4 -4 10 -9 13 -6 3 -13 24
-17 45 -6 31 -5 37 5 31 9 -5 11 -4 6 4 -4 6 -11 9 -16 6 -12 -8 -23 115 -16
177 13 100 55 193 135 293 13 17 25 24 33 19 16 -11 42 -15 33 -6 -4 4 -12 7
-17 7 -6 0 -13 7 -16 15 -3 8 -1 12 3 8 5 -4 15 -2 23 5 13 9 14 9 8 0 -5 -9
-2 -11 8 -7 9 3 13 10 10 16 -7 11 16 30 68 58 23 12 39 16 43 10 3 -6 16 -10
28 -9 21 0 21 1 -3 11 -23 10 -19 12 45 28 97 25 222 25 319 0z"/>
<path d="M3759 3237 c5 -5 19 -7 32 -5 20 3 19 5 -9 9 -20 3 -29 2 -23 -4z"/>
<path d="M3558 3143 c23 -2 61 -2 85 0 23 2 4 4 -43 4 -47 0 -66 -2 -42 -4z"/>
<path d="M3754 3105 c1 -8 6 -18 11 -22 4 -4 5 -3 2 4 -4 6 -2 13 5 15 8 3 6
6 -4 10 -10 4 -15 2 -14 -7z"/>
<path d="M3120 3080 c0 -5 7 -7 15 -4 8 4 15 8 15 10 0 2 -7 4 -15 4 -8 0 -15
-4 -15 -10z"/>
<path d="M3884 3068 l-19 -23 23 19 c21 18 27 26 19 26 -2 0 -12 -10 -23 -22z"/>
<path d="M3795 3060 c3 -5 8 -10 11 -10 2 0 4 5 4 10 0 6 -5 10 -11 10 -5 0
-7 -4 -4 -10z"/>
<path d="M3834 3036 c1 -8 5 -18 8 -22 4 -3 5 1 4 10 -1 8 -5 18 -8 22 -4 3
-5 -1 -4 -10z"/>
<path d="M3062 2955 c0 -16 2 -22 5 -12 2 9 2 23 0 30 -3 6 -5 -1 -5 -18z"/>
<path d="M3585 2700 c-3 -5 -1 -10 4 -10 6 0 11 5 11 10 0 6 -2 10 -4 10 -3 0
-8 -4 -11 -10z"/>
<path d="M3628 2693 c12 -2 30 -2 40 0 9 3 -1 5 -23 4 -22 0 -30 -2 -17 -4z"/>
<path d="M3225 2591 c4 -8 2 -17 -6 -22 -9 -6 -10 -9 -2 -9 19 0 27 21 13 33
-10 9 -11 9 -5 -2z"/>
<path d="M3812 2510 c-2 -42 12 -71 21 -45 4 9 3 13 -2 10 -6 -3 -12 12 -14
32 l-4 38 -1 -35z"/>
<path d="M3300 2491 c0 -5 7 -12 16 -15 14 -5 15 -4 4 9 -14 17 -20 19 -20 6z"/>
<path d="M3110 2462 c0 -5 7 -15 15 -22 8 -7 15 -9 15 -6 0 4 -7 14 -15 22 -8
9 -15 11 -15 6z"/>
<path d="M3388 2408 c9 -9 15 -9 24 0 9 9 7 12 -12 12 -19 0 -21 -3 -12 -12z"/>
<path d="M3157 2400 c7 -8 20 -15 29 -16 9 -1 13 1 9 4 -4 4 -10 7 -13 7 -4 0
-14 4 -22 9 -12 7 -13 6 -3 -4z"/>
<path d="M3933 2385 c0 -7 6 -11 14 -8 7 3 13 6 13 8 0 2 -6 5 -13 8 -8 3 -14
-1 -14 -8z"/>
<path d="M3275 2310 c4 -6 11 -8 16 -5 14 9 11 15 -7 15 -8 0 -12 -5 -9 -10z"/>
<path d="M3826 2311 c-4 -5 3 -7 14 -4 23 6 26 13 6 13 -8 0 -17 -4 -20 -9z"/>
<path d="M3523 2243 c9 -2 23 -2 30 0 6 3 -1 5 -18 5 -16 0 -22 -2 -12 -5z"/>
<path d="M3598 2243 c7 -3 16 -2 19 1 4 3 -2 6 -13 5 -11 0 -14 -3 -6 -6z"/>
<path d="M4195 2755 l0 -535 123 0 122 0 0 224 0 224 235 0 235 1 0 -225 0
-224 125 0 125 0 0 535 0 535 -125 0 -125 0 0 -207 0 -208 -235 0 -235 0 0
208 0 207 -122 0 -123 0 0 -535z m227 308 l3 -208 248 1 c136 1 250 4 253 7 4
4 8 95 9 204 l3 198 81 3 81 3 1 -28 2 -28 4 28 c3 16 9 27 14 25 14 -5 14
-1021 0 -1026 -6 -2 -12 7 -12 20 -2 21 -2 21 -6 2 -4 -19 -11 -21 -78 -20
-40 1 -76 4 -80 8 -4 3 -7 99 -8 212 l-2 205 -25 12 c-26 12 -462 15 -480 4
-6 -4 -10 -97 -10 -223 l0 -217 -104 -2 -104 -1 -1 514 -1 514 105 0 105 0 2
-207z"/>
<path d="M4298 3223 c7 -3 16 -2 19 1 4 3 -2 6 -13 5 -11 0 -14 -3 -6 -6z"/>
<path d="M5100 2965 c0 -137 3 -246 6 -243 6 7 6 480 -1 487 -3 2 -5 -107 -5
-244z"/>
<path d="M5103 2500 c0 -176 1 -194 7 -100 3 63 3 160 0 215 -5 75 -7 45 -7
-115z"/>
<path d="M979 3183 c-13 -16 -12 -17 4 -4 9 7 17 15 17 17 0 8 -8 3 -21 -13z"/>
<path d="M2015 3169 c-4 -6 -5 -12 -2 -15 2 -3 7 2 10 11 7 17 1 20 -8 4z"/>
<path d="M1890 3146 c0 -2 8 -10 18 -17 15 -13 16 -12 3 4 -13 16 -21 21 -21
13z"/>
<path d="M1823 3045 c-3 -9 -3 -18 -1 -21 3 -3 8 4 11 16 6 23 -1 27 -10 5z"/>
<path d="M1615 2990 c-3 -6 1 -7 9 -4 18 7 21 14 7 14 -6 0 -13 -4 -16 -10z"/>
<path d="M2739 2973 c-13 -16 -12 -17 4 -4 16 13 21 21 13 21 -2 0 -10 -8 -17
-17z"/>
<path d="M3349 2973 c-13 -16 -12 -17 4 -4 9 7 17 15 17 17 0 8 -8 3 -21 -13z"/>
<path d="M2666 2972 c-2 -4 4 -8 14 -8 10 0 16 4 14 8 -3 4 -9 8 -14 8 -5 0
-11 -4 -14 -8z"/>
<path d="M305 2879 c-4 -6 -5 -12 -2 -15 2 -3 7 2 10 11 7 17 1 20 -8 4z"/>
<path d="M356 2813 c50 -491 175 -868 408 -1238 219 -348 549 -667 902 -873
287 -167 637 -293 934 -336 105 -15 243 -30 257 -27 5 0 9 39 9 85 l2 83 -87
7 c-382 31 -803 179 -1128 396 -304 204 -510 411 -713 717 -226 339 -376 766
-406 1156 l-7 87 -88 0 -89 0 6 -57z m159 -50 c4 -49 9 -97 11 -108 17 -120
82 -380 120 -485 15 -41 27 -88 27 -103 0 -16 3 -24 6 -18 6 9 81 -133 81
-154 0 -4 13 -29 29 -54 35 -57 49 -97 31 -86 -9 5 -11 4 -6 -4 4 -6 11 -9 16
-6 12 8 33 -23 24 -37 -4 -7 -3 -10 1 -5 8 7 65 -69 65 -87 0 -4 10 -21 23
-37 12 -15 36 -47 52 -69 17 -23 54 -70 83 -105 31 -38 50 -70 46 -77 -4 -7
-3 -8 4 -4 7 4 36 -19 69 -55 60 -64 116 -119 167 -162 21 -18 25 -26 15 -30
-11 -5 -10 -6 1 -5 8 2 27 -6 42 -16 21 -14 27 -24 23 -43 -2 -14 -1 -23 2
-20 3 4 15 2 27 -4 18 -9 18 -8 -3 9 -13 11 -19 22 -14 25 10 6 58 -37 58 -51
0 -4 4 -6 8 -4 10 3 78 -43 72 -50 -3 -2 1 -5 9 -5 27 0 87 -45 81 -61 -4 -12
-3 -13 10 -2 14 12 20 7 16 -14 -1 -5 5 -6 14 -2 11 4 14 2 9 -6 -5 -7 -2 -9
9 -5 9 3 17 2 19 -3 4 -10 298 -152 350 -169 21 -7 40 -17 44 -22 3 -5 10 -7
15 -3 5 3 15 1 22 -4 7 -5 32 -14 57 -20 86 -19 190 -50 203 -59 6 -5 26 -10
42 -11 17 -1 64 -9 105 -16 41 -8 114 -18 163 -22 l87 -7 0 -63 c0 -75 12 -71
-155 -50 -166 21 -339 57 -323 68 9 6 6 7 -10 3 -64 -18 -624 206 -614 246 1
6 -2 8 -7 4 -16 -9 -113 44 -105 57 4 7 3 8 -5 4 -13 -8 -51 13 -93 52 -16 14
-28 22 -28 18 0 -5 -7 -3 -15 4 -8 7 -12 17 -8 23 3 5 2 7 -4 4 -6 -4 -19 0
-29 8 -18 15 -18 15 1 9 16 -5 17 -4 5 4 -8 6 -18 8 -22 5 -5 -2 -30 12 -56
33 -67 55 -74 63 -67 74 3 5 0 7 -7 5 -18 -7 -140 103 -132 117 4 6 2 8 -3 5
-14 -9 -165 151 -157 165 4 6 3 8 -3 5 -5 -3 -16 2 -24 11 -90 107 -100 122
-93 134 4 7 4 10 -1 6 -9 -8 -75 70 -75 90 0 6 -5 12 -11 12 -6 0 -8 9 -4 23
4 15 3 18 -3 8 -12 -16 -27 3 -16 21 4 6 3 8 -3 5 -13 -8 -46 50 -39 69 3 8 1
12 -4 9 -12 -8 -38 34 -101 164 -130 266 -217 569 -249 861 -6 58 -13 115 -16
128 -4 21 -2 22 65 22 l69 0 7 -87z"/>
<path d="M510 2221 c0 -11 4 -22 9 -25 4 -3 6 6 3 19 -5 30 -12 33 -12 6z"/>
<path d="M680 2010 c0 -5 5 -10 11 -10 5 0 7 5 4 10 -3 6 -8 10 -11 10 -2 0
-4 -4 -4 -10z"/>
<path d="M750 1861 c0 -6 4 -13 10 -16 6 -3 7 1 4 9 -7 18 -14 21 -14 7z"/>
<path d="M805 1720 c-4 -6 -3 -16 3 -22 6 -6 12 -6 17 2 4 6 3 16 -3 22 -6 6
-12 6 -17 -2z"/>
<path d="M986 1462 c-3 -4 4 -9 15 -9 23 -2 25 3 4 10 -8 4 -16 3 -19 -1z"/>
<path d="M1060 1404 c0 -5 7 -18 15 -28 8 -11 15 -16 15 -10 0 5 -7 18 -15 28
-8 11 -15 16 -15 10z"/>
<path d="M970 1356 c0 -2 7 -7 16 -10 8 -3 12 -2 9 4 -6 10 -25 14 -25 6z"/>
<path d="M1104 1269 c-3 -6 -2 -15 3 -20 5 -5 9 -1 9 11 0 23 -2 24 -12 9z"/>
<path d="M1215 1226 c10 -14 19 -26 22 -26 7 0 -17 39 -28 46 -6 3 -3 -5 6
-20z"/>
<path d="M1190 1099 c0 -5 5 -7 10 -4 6 3 10 8 10 11 0 2 -4 4 -10 4 -5 0 -10
-5 -10 -11z"/>
<path d="M1210 1086 c0 -2 8 -10 18 -17 15 -13 16 -12 3 4 -13 16 -21 21 -21
13z"/>
<path d="M1270 1030 c0 -5 5 -10 11 -10 5 0 7 5 4 10 -3 6 -8 10 -11 10 -2 0
-4 -4 -4 -10z"/>
<path d="M1413 937 c0 -8 6 -14 14 -14 9 0 10 4 2 14 -6 7 -12 13 -14 13 -1 0
-2 -6 -2 -13z"/>
<path d="M1848 748 c5 -5 16 -8 23 -6 8 3 3 7 -10 11 -17 4 -21 3 -13 -5z"/>
<path d="M1998 681 c8 -4 13 -12 12 -17 -1 -5 4 -10 12 -12 9 -2 8 0 -2 7 -13
10 -13 11 0 11 13 0 13 1 0 10 -8 5 -19 10 -25 10 -5 0 -4 -4 3 -9z"/>
<path d="M2168 603 c7 -3 16 -2 19 1 4 3 -2 6 -13 5 -11 0 -14 -3 -6 -6z"/>
<path d="M1978 583 c7 -3 16 -2 19 1 4 3 -2 6 -13 5 -11 0 -14 -3 -6 -6z"/>
<path d="M2408 533 c6 -2 18 -2 25 0 6 3 1 5 -13 5 -14 0 -19 -2 -12 -5z"/>
<path d="M2150 519 c0 -5 9 -9 20 -9 11 0 20 2 20 4 0 2 -9 6 -20 9 -11 3 -20
1 -20 -4z"/>
<path d="M2418 433 c12 -2 32 -2 45 0 12 2 2 4 -23 4 -25 0 -35 -2 -22 -4z"/>
<path d="M5461 2741 c-46 -475 -249 -959 -563 -1339 -328 -397 -795 -693
-1298 -823 -115 -30 -352 -69 -422 -69 l-38 0 0 -85 0 -85 28 0 c51 0 276 30
377 51 198 40 488 147 685 251 239 128 446 282 645 482 312 313 533 682 659
1100 42 139 93 384 101 491 3 44 8 97 11 118 l6 37 -90 -1 -89 -1 -12 -127z
m164 47 c-17 -160 -48 -349 -75 -452 -67 -263 -205 -575 -343 -779 -52 -77
-61 -86 -76 -75 -14 12 -14 11 -3 -4 11 -14 11 -21 -3 -42 -18 -28 -30 -35
-22 -13 3 8 -1 14 -8 14 -11 0 -11 -5 -4 -19 11 -21 -6 -52 -22 -42 -5 3 -8 1
-7 -4 2 -6 -23 -42 -56 -82 -45 -55 -61 -69 -68 -58 -7 10 -8 9 -4 -5 4 -12
-18 -41 -80 -102 -47 -47 -90 -82 -96 -79 -6 4 -8 3 -5 -3 9 -14 -126 -128
-249 -210 -54 -37 -101 -70 -104 -74 -13 -17 -74 -41 -78 -30 -2 6 -8 11 -14
11 -7 0 -6 -5 1 -14 13 -16 4 -21 -186 -115 -130 -64 -366 -153 -438 -165 -16
-3 -55 -12 -85 -20 -112 -29 -425 -76 -434 -65 -2 2 -6 32 -9 65 l-5 61 87 7
c72 6 191 24 276 41 44 9 295 86 360 111 39 15 78 27 87 27 9 1 15 4 13 7 -2
3 47 30 108 60 62 30 129 65 149 78 21 13 42 21 49 16 7 -4 10 -3 6 3 -3 5 26
31 66 56 145 94 318 236 435 359 30 32 58 55 63 52 5 -3 6 1 4 8 -3 8 11 29
31 48 23 22 35 28 31 17 -4 -11 -3 -16 4 -12 6 4 8 14 5 22 -4 9 20 48 57 96
274 357 457 829 502 1295 l7 72 70 0 70 0 -7 -62z"/>
<path d="M5561 2524 c0 -11 3 -14 6 -6 3 7 2 16 -1 19 -3 4 -6 -2 -5 -13z"/>
<path d="M5366 1918 c3 -5 10 -6 15 -3 13 9 11 12 -6 12 -8 0 -12 -4 -9 -9z"/>
<path d="M5155 1709 c-4 -6 -5 -12 -2 -15 2 -3 7 2 10 11 7 17 1 20 -8 4z"/>
<path d="M5106 1633 c-6 -14 -5 -15 5 -6 7 7 10 15 7 18 -3 3 -9 -2 -12 -12z"/>
<path d="M5075 1580 c-3 -5 -1 -10 4 -10 6 0 11 5 11 10 0 6 -2 10 -4 10 -3 0
-8 -4 -11 -10z"/>
<path d="M5016 1483 c-6 -14 -5 -15 5 -6 7 7 10 15 7 18 -3 3 -9 -2 -12 -12z"/>
<path d="M4976 1307 c3 -10 9 -15 12 -12 3 3 0 11 -7 18 -10 9 -11 8 -5 -6z"/>
<path d="M4915 1249 c-4 -6 -5 -12 -2 -15 2 -3 7 2 10 11 7 17 1 20 -8 4z"/>
<path d="M4705 1151 c-3 -5 -2 -12 3 -15 5 -3 9 1 9 9 0 17 -3 19 -12 6z"/>
<path d="M4820 1130 c-8 -5 -12 -12 -9 -15 4 -3 12 1 19 10 14 17 11 19 -10 5z"/>
<path d="M4605 1070 c-3 -5 -3 -10 2 -10 4 0 1 -5 -7 -11 -13 -9 -13 -10 0 -6
8 2 14 10 12 17 -2 8 3 10 13 6 9 -3 13 -2 10 4 -8 13 -22 13 -30 0z"/>
<path d="M4740 1069 c0 -5 5 -7 10 -4 6 3 10 8 10 11 0 2 -4 4 -10 4 -5 0 -10
-5 -10 -11z"/>
<path d="M4719 1023 c-13 -16 -12 -17 4 -4 16 13 21 21 13 21 -2 0 -10 -8 -17
-17z"/>
<path d="M4572 935 c4 -4 3 -16 -3 -26 -5 -11 -7 -19 -5 -19 3 0 10 9 16 19 7
15 7 22 -2 27 -7 4 -10 4 -6 -1z"/>
<path d="M4430 920 c-9 -6 -10 -10 -3 -10 6 0 15 5 18 10 8 12 4 12 -15 0z"/>
<path d="M4489 878 c-5 -18 -6 -38 -1 -34 7 8 12 36 6 36 -2 0 -4 -1 -5 -2z"/>
<path d="M4383 784 c0 -16 13 -19 21 -5 3 5 0 11 -7 14 -8 3 -14 -1 -14 -9z"/>
<path d="M4353 755 c0 -8 4 -12 9 -9 5 3 6 10 3 15 -9 13 -12 11 -12 -6z"/>
<path d="M4234 702 c3 -5 0 -13 -6 -15 -9 -4 -10 -6 -1 -6 17 -1 25 16 12 25
-7 4 -9 3 -5 -4z"/>
<path d="M4186 663 c-6 -14 -5 -15 5 -6 7 7 10 15 7 18 -3 3 -9 -2 -12 -12z"/>
<path d="M4008 583 c7 -3 16 -2 19 1 4 3 -2 6 -13 5 -11 0 -14 -3 -6 -6z"/>
<path d="M3555 530 c4 -6 11 -8 16 -5 14 9 11 15 -7 15 -8 0 -12 -5 -9 -10z"/>
<path d="M3818 513 c6 -2 18 -2 25 0 6 3 1 5 -13 5 -14 0 -19 -2 -12 -5z"/>
<path d="M3630 470 c-9 -6 -10 -10 -3 -10 6 0 15 5 18 10 8 12 4 12 -15 0z"/>
<path d="M3685 470 c-3 -6 1 -7 9 -4 18 7 21 14 7 14 -6 0 -13 -4 -16 -10z"/>
<path d="M3535 440 l-30 -8 30 -1 c17 0 37 4 45 9 13 9 13 10 0 9 -8 -1 -28
-5 -45 -9z"/>
<path d="M1378 2853 c7 -3 16 -2 19 1 4 3 -2 6 -13 5 -11 0 -14 -3 -6 -6z"/>
<path d="M811 2604 c0 -11 3 -14 6 -6 3 7 2 16 -1 19 -3 4 -6 -2 -5 -13z"/>
<path d="M1360 2611 c0 -6 4 -13 10 -16 6 -3 7 1 4 9 -7 18 -14 21 -14 7z"/>
<path d="M612 2570 c0 -14 2 -19 5 -12 2 6 2 18 0 25 -3 6 -5 1 -5 -13z"/>
<path d="M1231 2546 c-9 -10 -8 -15 2 -19 8 -3 13 3 13 14 0 23 0 23 -15 5z"/>
<path d="M840 2510 c0 -5 5 -10 11 -10 5 0 7 5 4 10 -3 6 -8 10 -11 10 -2 0
-4 -4 -4 -10z"/>
<path d="M3086 2341 c-3 -5 1 -11 9 -14 9 -4 12 -1 8 9 -6 16 -10 17 -17 5z"/>
<path d="M1566 2152 c-2 -4 -1 -14 4 -22 7 -11 9 -9 7 8 -1 24 -3 26 -11 14z"/>
<path d="M1403 2096 c10 -27 89 -151 145 -231 66 -92 235 -267 338 -349 171
-136 427 -265 644 -324 173 -48 246 -57 470 -57 247 0 356 17 553 84 168 58
192 68 320 140 245 137 440 313 601 540 37 52 126 198 126 207 0 2 -28 4 -62
4 l-63 0 -27 -48 c-71 -130 -247 -331 -388 -445 -188 -151 -450 -282 -667
-332 -314 -73 -647 -56 -943 47 -130 46 -314 140 -420 215 -174 125 -383 348
-482 517 l-28 46 -61 0 c-48 0 -60 -3 -56 -14z m67 -18 c0 -9 3 -9 12 0 15 15
38 16 38 1 0 -5 -6 -7 -12 -3 -7 4 -3 -3 10 -15 12 -12 19 -27 16 -33 -4 -7
-2 -8 4 -4 6 4 16 -4 23 -16 7 -13 30 -47 52 -76 35 -46 38 -54 26 -70 -13
-16 -13 -16 5 -2 18 14 19 13 13 -2 -4 -12 -2 -15 7 -12 18 7 31 -14 31 -50 0
-20 6 -30 18 -32 17 -2 17 -1 2 23 -27 41 -3 22 55 -42 30 -33 58 -62 64 -64
6 -2 13 -7 16 -10 3 -4 31 -28 62 -55 32 -26 55 -53 51 -59 -3 -6 -1 -7 6 -3
14 9 63 -28 53 -39 -4 -5 -1 -5 5 -1 12 6 69 -26 85 -49 5 -7 8 -7 8 0 0 6 4
5 8 -1 9 -15 155 -88 230 -116 31 -11 67 -27 78 -35 12 -8 26 -13 30 -12 5 2
41 -7 79 -20 39 -12 86 -24 105 -27 19 -3 51 -9 70 -15 19 -5 55 -9 80 -9 37
-1 42 -2 26 -11 -10 -6 -39 -9 -65 -6 -25 2 -40 2 -33 0 6 -3 10 -8 7 -12 -2
-5 19 -6 48 -4 28 3 57 5 64 6 7 0 10 4 6 9 -3 6 37 8 98 5 99 -5 275 10 384
32 28 5 95 24 148 41 83 27 101 29 115 18 15 -11 16 -11 4 3 -11 15 -7 19 33
32 25 9 54 14 63 11 13 -5 14 -4 3 4 -10 7 1 16 45 37 58 27 223 126 256 153
9 8 22 11 29 6 7 -4 10 -3 6 3 -4 6 30 42 76 81 45 39 93 82 106 96 13 14 28
23 34 19 6 -3 7 -1 4 4 -4 6 1 17 10 24 15 12 16 12 11 -3 -7 -18 0 -30 13
-22 5 3 4 14 -2 25 -8 17 -4 28 28 67 60 73 117 153 144 199 22 40 27 43 67
43 l43 0 -37 -67 c-46 -83 -131 -198 -147 -198 -7 -1 -11 -7 -9 -14 4 -18
-139 -167 -156 -163 -8 2 -11 -1 -8 -6 8 -14 -131 -135 -145 -126 -7 4 -9 3
-6 -3 7 -12 -148 -117 -228 -155 -27 -13 -59 -29 -70 -36 -27 -16 -241 -98
-290 -111 -195 -52 -474 -74 -655 -51 -52 6 -106 13 -120 14 -84 9 -221 46
-215 57 3 4 0 11 -6 15 -8 4 -9 3 -5 -4 13 -21 -21 -13 -131 33 -59 24 -107
49 -105 55 1 6 -6 10 -15 8 -10 -1 -40 8 -66 21 -42 20 -46 25 -35 40 12 14
11 15 -4 2 -14 -11 -21 -11 -33 -1 -8 7 -12 17 -8 23 4 6 1 7 -6 2 -17 -10
-156 85 -240 163 -35 33 -64 59 -65 58 -1 0 -30 29 -65 66 -38 41 -60 72 -55
79 4 7 3 9 -3 6 -18 -11 -150 164 -138 183 4 6 2 9 -4 8 -6 -2 -25 21 -42 50
-29 50 -30 52 -10 52 12 0 21 -5 21 -12z"/>
<path d="M4440 1940 c0 -5 5 -10 11 -10 5 0 7 5 4 10 -3 6 -8 10 -11 10 -2 0
-4 -4 -4 -10z"/>
<path d="M4400 1880 c-9 -6 -10 -10 -3 -10 6 0 15 5 18 10 8 12 4 12 -15 0z"/>
<path d="M1671 1824 c0 -11 3 -14 6 -6 3 7 2 16 -1 19 -3 4 -6 -2 -5 -13z"/>
<path d="M4175 1670 c-3 -6 1 -7 9 -4 18 7 21 14 7 14 -6 0 -13 -4 -16 -10z"/>
<path d="M4134 1628 l-19 -23 23 19 c21 18 27 26 19 26 -2 0 -12 -10 -23 -22z"/>
<path d="M4064 1552 c4 -3 14 -7 22 -8 9 -1 13 0 10 4 -4 3 -14 7 -22 8 -9 1
-13 0 -10 -4z"/>
<path d="M4025 1530 c-3 -6 1 -7 9 -4 18 7 21 14 7 14 -6 0 -13 -4 -16 -10z"/>
<path d="M1930 1526 c0 -2 8 -10 18 -17 15 -13 16 -12 3 4 -13 16 -21 21 -21
13z"/>
<path d="M3989 1494 c-12 -15 21 -14 44 1 17 12 16 13 -8 11 -15 0 -31 -6 -36
-12z"/>
<path d="M1977 1489 c7 -7 15 -10 18 -7 3 3 -2 9 -12 12 -14 6 -15 5 -6 -5z"/>
<path d="M2061 1477 c2 -1 15 -11 29 -22 l25 -20 -19 23 c-11 12 -24 22 -29
22 -6 0 -8 -1 -6 -3z"/>
<path d="M3839 1413 c-13 -16 -12 -17 4 -4 16 13 21 21 13 21 -2 0 -10 -8 -17
-17z"/>
<path d="M3863 1404 l-28 -25 33 22 c17 13 32 24 32 26 0 8 -11 1 -37 -23z"/>
<path d="M2197 1399 c7 -7 15 -10 18 -7 3 3 -2 9 -12 12 -14 6 -15 5 -6 -5z"/>
<path d="M3780 1395 c-14 -8 -20 -14 -14 -15 5 0 19 7 30 15 24 18 16 19 -16
0z"/>
<path d="M2243 1375 c0 -7 6 -11 14 -8 7 3 13 6 13 8 0 2 -6 5 -13 8 -8 3 -14
-1 -14 -8z"/>
<path d="M2268 1353 c6 -2 18 -2 25 0 6 3 1 5 -13 5 -14 0 -19 -2 -12 -5z"/>
<path d="M3536 1281 c-4 -5 3 -7 14 -4 23 6 26 13 6 13 -8 0 -17 -4 -20 -9z"/>
<path d="M2478 1273 c7 -3 16 -2 19 1 4 3 -2 6 -13 5 -11 0 -14 -3 -6 -6z"/>
<path d="M3225 1200 c3 -5 16 -10 28 -10 18 0 19 2 7 10 -20 13 -43 13 -35 0z"/>
<path d="M1255 2050 c-3 -5 -1 -10 4 -10 6 0 11 5 11 10 0 6 -2 10 -4 10 -3 0
-8 -4 -11 -10z"/>
<path d="M1076 1989 c-43 -37 -54 -82 -33 -130 13 -30 61 -89 72 -89 3 0 25
10 49 22 40 19 44 24 34 42 -6 12 -12 22 -13 24 -2 2 -18 -4 -35 -13 -39 -20
-56 -9 -66 42 -14 71 90 114 135 57 12 -15 21 -37 21 -49 0 -19 17 -35 37 -35
3 0 3 21 0 47 -4 38 -12 54 -41 80 -50 46 -110 47 -160 2z m145 -16 l24 -28
-26 23 c-14 12 -38 22 -55 22 -33 0 -94 -34 -94 -52 0 -6 -2 -9 -5 -6 -12 11
10 41 39 54 51 22 89 18 117 -13z m-164 -85 c-3 -7 -5 -2 -5 12 0 14 2 19 5
13 2 -7 2 -19 0 -25z m23 -53 c0 -5 -5 -3 -10 5 -5 8 -10 20 -10 25 0 6 5 3
10 -5 5 -8 10 -19 10 -25z m90 -9 c0 -2 -11 -11 -24 -19 -20 -14 -26 -14 -42
-2 -18 13 -18 14 3 9 12 -3 30 -1 40 5 20 12 23 13 23 7z"/>
<path d="M4837 1990 c-70 -83 4 -180 107 -140 28 10 56 57 56 93 0 20 -4 23
-24 20 -17 -4 -22 -10 -19 -23 5 -20 -29 -60 -52 -60 -21 0 -20 4 21 67 19 30
33 57 30 60 -3 3 -25 8 -49 10 -39 5 -46 2 -70 -27z m23 -4 c0 -2 -8 -10 -17
-17 -16 -13 -17 -12 -4 4 13 16 21 21 21 13z m28 -46 c-21 -42 -38 -45 -38 -6
0 26 17 46 41 46 15 0 15 -4 -3 -40z m-10 -69 c9 -5 14 -12 11 -15 -8 -8 -59
32 -59 45 0 6 7 3 15 -5 9 -9 24 -20 33 -25z m92 25 c0 -2 -8 -10 -17 -17 -16
-13 -17 -12 -4 4 13 16 21 21 21 13z"/>
<path d="M1640 1996 c0 -2 8 -10 18 -17 15 -13 16 -12 3 4 -13 16 -21 21 -21
13z"/>
<path d="M1156 1897 c3 -10 9 -15 12 -12 3 3 0 11 -7 18 -10 9 -11 8 -5 -6z"/>
<path d="M4742 1838 c-35 -38 -45 -77 -27 -104 21 -32 47 -30 90 7 26 23 39
29 47 21 8 -8 0 -20 -26 -45 -34 -31 -36 -35 -21 -47 15 -13 21 -10 51 23 25
27 34 46 34 72 0 59 -57 68 -104 16 -20 -22 -46 -28 -46 -10 0 6 13 22 29 36
25 22 27 28 16 40 -18 17 -18 17 -43 -9z m112 -44 c9 -3 16 -11 16 -16 0 -7
-5 -6 -13 1 -8 6 -17 8 -20 4 -4 -3 -7 -1 -7 5 0 14 2 14 24 6z m-100 -63 c-2
-3 -12 3 -22 13 -16 17 -16 18 5 5 12 -7 20 -15 17 -18z"/>
<path d="M1254 1795 c-4 -9 4 -23 20 -36 15 -12 26 -30 26 -45 0 -33 -10 -30
-43 11 -31 39 -64 45 -90 17 -26 -28 -20 -60 15 -95 18 -18 33 -35 33 -39 0
-4 5 -12 10 -17 14 -14 114 65 121 96 8 32 -13 79 -46 103 -34 24 -39 25 -46
5z m-39 -65 c-28 -12 -37 -12 -30 0 3 6 16 10 28 9 21 0 21 -1 2 -9z m110 -39
c-4 -17 -12 -31 -18 -31 -6 0 -22 -11 -36 -24 -24 -22 -27 -23 -41 -8 -13 14
-12 15 3 9 22 -8 87 50 87 77 0 11 3 17 6 13 3 -3 3 -19 -1 -36z m-74 -31
c-20 -12 -51 6 -51 29 0 31 13 33 39 6 22 -21 23 -27 12 -35z"/>
<path d="M927 1743 c3 -7 6 -13 8 -13 2 0 5 6 8 13 3 8 -1 14 -8 14 -7 0 -11
-6 -8 -14z"/>
<path d="M4646 1709 c-19 -18 -18 -19 27 -60 50 -43 59 -72 28 -89 -27 -14
-27 -14 -75 30 -43 39 -43 40 -61 20 -10 -11 -16 -22 -14 -24 48 -46 109 -86
131 -86 30 0 72 45 63 68 -3 9 0 12 8 9 8 -3 22 4 31 15 17 19 17 21 -6 36
-13 9 -43 35 -68 58 -44 40 -45 41 -64 23z m95 -69 c6 0 8 -4 4 -9 -3 -5 1
-11 10 -13 10 -2 12 -7 5 -18 -9 -13 -11 -13 -19 0 -5 8 -11 20 -12 25 -2 6
-17 19 -33 30 -16 11 -32 27 -34 35 -3 8 11 0 32 -18 20 -17 41 -32 47 -32z
m-117 -73 c24 -24 43 -34 64 -33 17 1 28 -2 25 -6 -11 -20 -60 -6 -95 27 -35
32 -45 45 -33 45 2 0 20 -15 39 -33z"/>
<path d="M940 1681 c0 -6 4 -13 10 -16 6 -3 7 1 4 9 -7 18 -14 21 -14 7z"/>
<path d="M1390 1651 c0 -6 -26 -31 -57 -57 -32 -25 -59 -49 -61 -53 -1 -4 4
-16 12 -26 14 -20 15 -20 43 6 51 47 74 59 95 48 28 -15 22 -40 -22 -88 -34
-37 -38 -46 -28 -60 7 -9 13 -18 15 -20 4 -7 86 75 99 101 19 36 3 76 -36 91
-16 6 -29 16 -28 22 2 15 -13 45 -23 45 -5 0 -9 -4 -9 -9z m11 -34 c-6 -8 -8
-17 -4 -20 3 -4 1 -8 -5 -8 -7 -1 -16 -2 -20 -3 -5 0 -20 -14 -34 -30 -17 -20
-27 -26 -32 -17 -4 6 -4 10 1 9 4 -2 27 16 51 40 39 39 68 58 43 29z m75 -82
c2 -16 -63 -95 -79 -95 -5 0 8 17 28 37 29 29 36 43 33 65 -3 20 -1 25 6 18 5
-5 11 -17 12 -25z"/>
<path d="M690 1619 c0 -6 -7 -9 -14 -6 -10 4 -13 1 -9 -9 4 -10 9 -12 18 -4 6
5 15 7 19 3 4 -4 4 0 0 10 -7 19 -14 22 -14 6z"/>
<path d="M1130 1616 c0 -2 7 -7 16 -10 8 -3 12 -2 9 4 -6 10 -25 14 -25 6z"/>
<path d="M4474 1512 c-52 -41 -58 -100 -15 -143 48 -47 118 -35 150 28 19 37
13 73 -18 104 -34 34 -84 39 -117 11z m21 -22 c-3 -5 -12 -10 -18 -10 -7 0 -6
4 3 10 19 12 23 12 15 0z m94 -21 c11 -19 12 -21 0 -9 -8 8 -21 21 -29 29 -12
11 -12 12 -1 9 8 -2 21 -15 30 -29z m-31 -1 c7 -7 12 -25 12 -40 0 -48 -71
-52 -89 -6 -16 42 45 78 77 46z m-101 -30 c-3 -8 -6 -5 -6 6 -1 11 2 17 5 13
3 -3 4 -12 1 -19z m50 -77 c-11 -4 -47 29 -47 45 0 7 12 1 28 -14 15 -15 23
-29 19 -31z m83 35 c0 -2 -8 -10 -17 -17 -16 -13 -17 -12 -4 4 13 16 21 21 21
13z"/>
<path d="M1840 1506 c0 -3 9 -10 20 -16 11 -6 20 -8 20 -6 0 3 -9 10 -20 16
-11 6 -20 8 -20 6z"/>
<path d="M1106 1485 c7 -18 6 -19 -12 -5 -18 14 -18 14 -5 -3 10 -12 17 -15
25 -7 7 7 6 14 -3 23 -10 10 -11 8 -5 -8z"/>
<path d="M1323 1471 c-9 -11 -21 -17 -26 -14 -6 4 -7 1 -2 -6 5 -9 13 -7 31
10 13 12 24 24 24 26 0 8 -12 1 -27 -16z"/>
<path d="M1846 1472 c-3 -5 1 -9 9 -9 8 0 12 4 9 9 -3 4 -7 8 -9 8 -2 0 -6 -4
-9 -8z"/>
<path d="M1508 1455 c-51 -29 -63 -83 -27 -129 11 -14 29 -26 41 -26 25 0 18
-24 -8 -28 -24 -3 -74 33 -74 54 0 16 -9 18 -30 4 -13 -8 -13 -13 0 -37 20
-35 76 -73 108 -73 19 0 45 20 98 77 72 78 73 78 52 97 -17 15 -22 16 -29 5
-5 -8 -9 -24 -9 -36 0 -13 -4 -23 -10 -23 -5 0 -10 -6 -10 -13 0 -8 -11 -24
-24 -36 l-23 -22 -6 21 c-4 16 -2 20 9 16 8 -3 14 -1 14 5 0 6 6 7 13 3 6 -4
9 -3 4 1 -4 5 -1 15 7 24 8 9 17 30 20 47 13 60 -58 102 -116 69z m47 -12
c-11 -3 -30 -14 -42 -26 -13 -11 -23 -15 -23 -9 0 16 41 42 65 41 20 -1 20 -1
0 -6z m33 -35 c7 -7 12 -21 12 -33 0 -12 -5 -26 -12 -33 -27 -27 -78 -7 -78
29 0 39 52 63 78 37z m-28 -153 c0 -7 -30 -13 -34 -7 -3 4 4 9 15 9 10 1 19 0
19 -2z"/>
<path d="M1651 1454 c0 -11 3 -14 6 -6 3 7 2 16 -1 19 -3 4 -6 -2 -5 -13z"/>
<path d="M4318 1436 c-24 -18 -23 -28 7 -56 14 -13 25 -27 25 -30 0 -4 -18
-20 -41 -36 l-41 -28 -28 34 c-25 31 -30 33 -46 20 -11 -8 -20 -15 -22 -16 -3
-2 73 -101 125 -163 21 -25 21 -26 42 -7 l21 19 -30 34 c-17 18 -30 37 -30 41
1 8 81 65 84 60 1 -2 13 -18 25 -35 25 -37 28 -38 54 -18 18 13 16 17 -30 73
-26 33 -59 74 -73 91 -22 27 -27 29 -42 17z m54 -66 c51 -68 55 -76 28 -57
-21 14 -25 14 -49 -1 l-26 -16 24 26 23 27 -21 27 c-11 15 -21 31 -21 37 0 12
-1 13 42 -43z m-147 -59 c3 -10 14 -26 24 -35 17 -15 20 -15 47 6 l29 22 -22
-25 c-29 -32 -29 -43 4 -73 15 -14 24 -28 21 -32 -9 -9 -121 119 -124 142 -3
21 14 17 21 -5z m215 -31 c0 -5 -2 -10 -4 -10 -3 0 -8 5 -11 10 -3 6 -1 10 4
10 6 0 11 -4 11 -10z"/>
<path d="M2328 1433 c7 -3 16 -2 19 1 4 3 -2 6 -13 5 -11 0 -14 -3 -6 -6z"/>
<path d="M1730 1400 c0 -5 5 -10 11 -10 5 0 7 5 4 10 -3 6 -8 10 -11 10 -2 0
-4 -4 -4 -10z"/>
<path d="M4822 1380 c0 -14 2 -19 5 -12 2 6 2 18 0 25 -3 6 -5 1 -5 -13z"/>
<path d="M1372 1354 c-7 -8 -8 -14 -3 -14 10 0 25 19 20 25 -2 1 -10 -3 -17
-11z"/>
<path d="M4260 1360 c0 -5 5 -10 11 -10 5 0 7 5 4 10 -3 6 -8 10 -11 10 -2 0
-4 -4 -4 -10z"/>
<path d="M880 1346 c0 -2 8 -10 18 -17 15 -13 16 -12 3 4 -13 16 -21 21 -21
13z"/>
<path d="M1688 1319 c-26 -15 -22 -61 7 -89 26 -25 33 -50 13 -50 -7 0 -26 14
-44 31 -31 30 -54 32 -54 4 0 -7 16 -27 35 -44 43 -37 98 -43 115 -12 15 29
13 37 -21 76 -24 27 -29 39 -21 47 9 9 19 5 40 -15 19 -18 35 -25 45 -21 26
10 21 21 -25 54 -43 32 -62 36 -90 19z m14 -31 c-7 -7 -12 -8 -12 -2 0 6 3 14
7 17 3 4 9 5 12 2 2 -3 -1 -11 -7 -17z"/>
<path d="M880 1316 c0 -2 8 -10 18 -17 15 -13 16 -12 3 4 -13 16 -21 21 -21
13z"/>
<path d="M4086 1262 c-3 -4 4 -9 15 -9 23 -2 25 3 4 10 -8 4 -16 3 -19 -1z"/>
<path d="M5075 1260 c-4 -6 -10 -8 -15 -5 -5 3 -11 1 -14 -4 -8 -13 22 -7 36
7 7 7 9 12 6 12 -4 0 -10 -5 -13 -10z"/>
<path d="M946 1217 c3 -10 9 -15 12 -12 3 3 0 11 -7 18 -10 9 -11 8 -5 -6z"/>
<path d="M4013 1213 c-21 -14 -21 -16 -6 -39 9 -15 11 -24 4 -24 -15 0 -14
-27 1 -36 6 -4 14 -2 16 5 2 7 19 -10 37 -37 40 -59 57 -67 95 -47 37 19 43
30 26 45 -11 8 -20 8 -34 1 -17 -9 -23 -5 -45 28 l-26 39 22 15 c19 12 20 16
8 31 -11 13 -17 14 -28 4 -12 -10 -18 -8 -31 9 -16 20 -19 20 -39 6z m51 -51
c-1 -2 4 -20 13 -40 15 -39 11 -36 -25 12 -12 15 -19 32 -16 37 3 5 0 9 -6 9
-6 0 -9 4 -5 10 3 5 13 2 24 -8 10 -9 17 -18 15 -20z m57 -99 c13 -15 12 -15
-8 -4 -24 12 -29 21 -14 21 5 0 15 -7 22 -17z"/>
<path d="M4651 1214 c0 -11 3 -14 6 -6 3 7 2 16 -1 19 -3 4 -6 -2 -5 -13z"/>
<path d="M1424 1212 c4 -3 14 -7 22 -8 9 -1 13 0 10 4 -4 3 -14 7 -22 8 -9 1
-13 0 -10 -4z"/>
<path d="M1945 1208 c-49 -28 -47 -69 5 -119 22 -21 40 -45 40 -54 0 -26 -49
-18 -81 15 -26 25 -34 28 -51 19 -20 -11 -19 -11 8 -41 53 -56 119 -73 154
-38 31 31 25 65 -21 115 -22 24 -38 49 -34 55 11 18 45 11 71 -15 21 -21 29
-23 45 -14 21 11 21 11 -3 36 -45 48 -94 63 -133 41z m18 -32 c-10 -13 -22
-22 -26 -19 -9 6 21 43 35 43 5 0 1 -11 -9 -24z m6 -69 l25 -32 -32 29 c-33
31 -37 36 -24 35 4 0 18 -14 31 -32z m41 -91 c0 -8 -7 -16 -15 -20 -13 -4 -14
-2 -5 14 13 23 20 26 20 6z"/>
<path d="M4146 1208 c3 -5 10 -6 15 -3 13 9 11 12 -6 12 -8 0 -12 -4 -9 -9z"/>
<path d="M2140 1179 c-7 -11 -10 -23 -7 -25 2 -2 9 7 15 21 14 30 7 33 -8 4z"/>
<path d="M1850 1181 c0 -6 4 -13 10 -16 6 -3 7 1 4 9 -7 18 -14 21 -14 7z"/>
<path d="M1043 1145 c0 -8 4 -12 9 -9 5 3 6 10 3 15 -9 13 -12 11 -12 -6z"/>
<path d="M4374 1144 c-18 -14 -18 -15 4 -4 12 6 22 13 22 15 0 8 -5 6 -26 -11z"/>
<path d="M3943 1123 c-31 -6 -73 -48 -73 -74 0 -38 27 -59 63 -48 18 5 40 9
50 9 31 0 13 -24 -27 -35 -20 -6 -37 -14 -37 -18 1 -4 1 -13 1 -21 0 -11 8
-12 33 -6 81 18 121 77 77 112 -23 19 -36 19 -93 2 -14 -5 -18 -1 -15 12 2 11
17 22 36 28 21 6 32 15 30 24 -3 17 -14 21 -45 15z m-23 -37 c0 -2 -8 -10 -17
-17 -16 -13 -17 -12 -4 4 13 16 21 21 21 13z m-10 -57 c0 -5 -4 -9 -10 -9 -5
0 -10 7 -10 16 0 8 5 12 10 9 6 -3 10 -10 10 -16z"/>
<path d="M4500 1116 c0 -2 8 -10 18 -17 15 -13 16 -12 3 4 -13 16 -21 21 -21
13z"/>
<path d="M1502 1101 c-11 -7 -11 -9 0 -14 9 -3 15 1 15 9 0 8 -1 14 -1 14 -1
0 -7 -4 -14 -9z"/>
<path d="M4484 1090 c0 -13 4 -16 10 -10 7 7 7 13 0 20 -6 6 -10 3 -10 -10z"/>
<path d="M4227 1075 c-4 -8 -3 -16 1 -19 4 -3 9 4 9 15 2 23 -3 25 -10 4z"/>
<path d="M2135 1071 c-79 -23 -99 -99 -41 -157 28 -28 42 -34 75 -34 39 0 41
1 31 20 -6 11 -19 20 -29 20 -25 0 -75 40 -63 52 5 5 30 -1 63 -16 57 -27 64
-26 74 14 12 53 -57 116 -110 101z m-21 -43 c-5 -7 -9 -18 -10 -25 -1 -6 -7
-19 -12 -30 -10 -16 -11 -16 -9 5 1 12 6 22 11 22 5 0 6 3 3 6 -3 4 -2 15 4
26 6 11 13 17 16 15 3 -3 1 -12 -3 -19z m74 -10 c7 -7 12 -20 12 -30 0 -17 -2
-17 -40 2 -23 12 -38 25 -35 30 9 14 49 12 63 -2z m33 -51 c-10 -9 -11 -8 -5
6 3 10 9 15 12 12 3 -3 0 -11 -7 -18z"/>
<path d="M1130 1066 c0 -2 8 -10 18 -17 15 -13 16 -12 3 4 -13 16 -21 21 -21
13z"/>
<path d="M3724 1022 c-50 -40 -56 -86 -18 -131 21 -26 33 -31 68 -31 46 0 106
35 99 58 -6 17 -50 15 -57 -4 -4 -10 -15 -14 -33 -12 -44 5 -36 23 19 42 29
11 57 22 62 27 5 4 -5 21 -22 38 -35 36 -84 41 -118 13z m110 -28 c3 -8 2 -12
-4 -9 -6 3 -10 10 -10 16 0 14 7 11 14 -7z m-24 -9 c10 -13 9 -15 -9 -15 -12
0 -33 -7 -46 -16 -22 -15 -25 -15 -25 -1 0 39 56 61 80 32z m-80 -72 c0 -7 5
-13 10 -13 6 0 10 -6 10 -12 -1 -19 -50 40 -50 59 0 14 2 14 15 -3 8 -10 15
-25 15 -31z"/>
<path d="M1575 1021 c-3 -5 -2 -12 3 -15 5 -3 9 1 9 9 0 17 -3 19 -12 6z"/>
<path d="M4407 1019 c7 -7 15 -10 18 -7 3 3 -2 9 -12 12 -14 6 -15 5 -6 -5z"/>
<path d="M4810 1011 c0 -6 4 -13 10 -16 6 -3 7 1 4 9 -7 18 -14 21 -14 7z"/>
<path d="M2274 925 c-16 -46 -26 -86 -23 -88 2 -3 13 -7 25 -11 18 -6 23 1 37
53 18 66 46 87 75 57 14 -14 14 -21 -2 -72 -19 -62 -20 -59 11 -68 20 -6 24
-1 39 51 10 32 17 67 16 77 -2 32 -38 60 -77 60 -22 0 -35 5 -35 13 0 7 -9 13
-19 13 -16 0 -25 -17 -47 -85z m60 46 c3 -4 -3 -16 -14 -26 -11 -10 -22 -33
-26 -51 -3 -19 -10 -37 -15 -40 -5 -3 -7 1 -5 8 3 7 12 37 21 66 16 50 27 62
39 43z m96 -52 c0 -10 -4 -21 -10 -24 -5 -3 -7 0 -4 9 3 8 0 25 -7 38 -11 21
-11 22 4 9 10 -7 17 -22 17 -32z m-19 -75 c-5 -16 -10 -21 -10 -12 -1 18 10
51 15 45 2 -1 -1 -16 -5 -33z"/>
<path d="M1205 980 c-4 -6 -11 -7 -17 -4 -7 4 -8 2 -4 -5 6 -8 12 -9 20 -2 9
7 17 7 26 -2 12 -10 12 -9 1 6 -16 20 -18 20 -26 7z"/>
<path d="M3597 983 c-12 -3 -16 -10 -13 -20 4 -9 11 -35 17 -59 13 -49 2 -74
-32 -74 -23 0 -30 12 -44 75 -11 45 -14 50 -36 47 -13 -2 -25 -5 -27 -7 -2 -2
6 -34 17 -73 18 -58 26 -72 49 -81 31 -13 75 -2 86 21 4 9 8 9 11 2 5 -9 55
-8 55 1 0 1 -4 15 -9 31 -5 16 -17 55 -26 87 -8 31 -19 56 -23 56 -4 -1 -15
-3 -25 -6z m33 -63 c0 -13 -1 -13 -10 0 -5 8 -10 22 -10 30 0 13 1 13 10 0 5
-8 10 -22 10 -30z m-122 -30 c5 -22 7 -40 3 -40 -4 0 -12 18 -18 40 -5 22 -7
40 -3 40 4 0 12 -18 18 -40z m141 -47 c1 -7 -6 -13 -15 -13 -11 0 -14 5 -10
16 3 9 6 25 7 37 1 20 2 20 9 -3 4 -14 8 -31 9 -37z m-112 -18 c8 -9 13 -18
11 -21 -3 -2 -13 5 -23 16 -21 23 -11 27 12 5z"/>
<path d="M3285 966 c-82 -37 -93 -147 -20 -204 57 -45 193 -14 180 40 -3 13
-7 34 -9 48 -1 14 -6 24 -9 23 -4 -2 -16 -3 -26 -3 -17 0 -19 -5 -14 -35 5
-30 2 -36 -21 -45 -74 -28 -129 65 -71 120 20 18 32 22 64 17 44 -6 74 14 53
35 -17 17 -94 20 -127 4z m5 -33 c-14 -9 -28 -22 -32 -27 -4 -6 -8 -7 -8 -2 0
14 33 45 50 45 8 1 4 -6 -10 -16z m-28 -116 c6 -15 23 -34 37 -42 18 -10 21
-14 9 -15 -29 0 -68 57 -67 98 1 26 3 30 6 12 2 -14 9 -38 15 -53z m142 -44
c-10 -7 -22 -13 -28 -13 -6 0 0 7 12 16 14 10 23 27 24 47 l1 32 4 -35 c3 -25
0 -38 -13 -47z"/>
<path d="M1246 952 c-3 -5 1 -9 9 -9 8 0 12 4 9 9 -3 4 -7 8 -9 8 -2 0 -6 -4
-9 -8z"/>
<path d="M2760 950 c-13 -8 -12 -10 3 -10 9 0 17 5 17 10 0 12 -1 12 -20 0z"/>
<path d="M4316 949 c2 -4 -2 -10 -8 -12 -8 -4 -9 -6 -2 -6 6 -1 17 5 23 12 8
10 7 14 -4 14 -8 0 -12 -4 -9 -8z"/>
<path d="M2506 914 c-28 -29 -34 -70 -15 -105 15 -29 67 -49 96 -38 17 6 23 5
23 -4 0 -37 -58 -49 -99 -21 -21 15 -24 15 -39 0 -15 -15 -15 -17 3 -30 26
-19 82 -32 118 -28 37 4 53 33 72 122 8 41 18 83 21 93 4 13 0 17 -20 17 -14
0 -26 -5 -26 -12 0 -6 -9 -2 -20 10 -29 31 -80 29 -114 -4z m17 -34 c-9 -11
-19 -18 -21 -16 -6 7 22 45 30 40 4 -3 0 -13 -9 -24z m79 8 c25 -21 28 -44 7
-67 -24 -25 -37 -26 -61 -4 -24 22 -23 49 4 67 27 19 30 19 50 4z m58 -5 c0
-5 -5 -15 -10 -23 -8 -12 -10 -11 -10 8 0 12 5 22 10 22 6 0 10 -3 10 -7z
m-141 -63 c11 -24 11 -24 -3 -6 -9 11 -16 24 -16 30 0 12 5 7 19 -24z m124
-10 c-6 -24 -23 -37 -23 -18 0 12 18 38 26 38 1 0 0 -9 -3 -20z m-25 -80 c-7
-11 -19 -20 -27 -20 -8 0 -4 8 10 20 30 25 32 25 17 0z"/>
<path d="M4710 936 c0 -2 8 -10 18 -17 15 -13 16 -12 3 4 -13 16 -21 21 -21
13z"/>
<path d="M1276 911 c-19 -7 -18 -8 4 -14 13 -3 26 -4 29 -2 2 3 -1 5 -8 5 -7
0 -9 5 -6 10 7 11 7 11 -19 1z"/>
<path d="M2703 898 c30 -74 58 -172 53 -184 -4 -11 -14 -15 -31 -12 -31 6 -57
-19 -34 -33 24 -15 75 -10 91 9 22 25 121 212 115 218 -2 2 -15 0 -28 -5 -30
-11 -94 -118 -74 -123 11 -2 11 -7 1 -26 -12 -23 -12 -23 -23 12 -6 20 -7 34
-2 30 13 -7 11 27 -3 81 -11 40 -15 45 -41 45 -19 0 -27 -4 -24 -12z m157 -38
c-6 -11 -13 -20 -16 -20 -2 0 0 9 6 20 6 11 13 20 16 20 2 0 0 -9 -6 -20z
m-100 -35 c0 -5 -5 -3 -10 5 -5 8 -10 20 -10 25 0 6 5 3 10 -5 5 -8 10 -19 10
-25z"/>
<path d="M4250 899 c0 -5 5 -7 10 -4 6 3 10 8 10 11 0 2 -4 4 -10 4 -5 0 -10
-5 -10 -11z"/>
<path d="M1340 846 c0 -3 9 -10 20 -16 11 -6 20 -8 20 -6 0 3 -9 10 -20 16
-11 6 -20 8 -20 6z"/>
<path d="M3022 838 c-20 -20 -14 -58 11 -67 32 -12 57 4 57 38 0 38 -41 56
-68 29z m44 -20 c4 -6 2 -14 -4 -16 -7 -2 -9 -9 -6 -15 4 -7 -1 -5 -11 5 -9 9
-14 21 -11 27 9 14 23 14 32 -1z"/>
<path d="M4595 821 c-3 -5 -2 -12 3 -15 5 -3 9 1 9 9 0 17 -3 19 -12 6z"/>
<path d="M4563 783 c0 -9 4 -10 14 -2 7 6 13 12 13 14 0 1 -6 2 -13 2 -8 0
-14 -6 -14 -14z"/>
<path d="M3996 778 c3 -5 10 -6 15 -3 13 9 11 12 -6 12 -8 0 -12 -4 -9 -9z"/>
<path d="M2348 773 c7 -3 16 -2 19 1 4 3 -2 6 -13 5 -11 0 -14 -3 -6 -6z"/>
<path d="M3216 751 c-3 -5 1 -14 8 -20 10 -9 16 -9 21 -1 4 6 1 9 -7 8 -7 -2
-12 3 -10 10 2 14 -4 16 -12 3z"/>
<path d="M3506 733 c-6 -14 -5 -15 5 -6 7 7 10 15 7 18 -3 3 -9 -2 -12 -12z"/>
<path d="M2416 717 c3 -10 9 -15 12 -12 3 3 0 11 -7 18 -10 9 -11 8 -5 -6z"/>
<path d="M1580 689 c-12 -8 -10 -9 9 -4 15 5 21 3 17 -3 -3 -6 -1 -14 5 -18 8
-4 9 -3 5 4 -8 13 5 16 20 5 5 -5 1 0 -9 10 -22 20 -27 20 -47 6z"/>
<path d="M4385 670 c-3 -6 1 -7 9 -4 18 7 21 14 7 14 -6 0 -13 -4 -16 -10z"/>
<path d="M1710 631 c13 -9 13 -11 -2 -11 -9 0 -20 -4 -23 -10 -4 -6 2 -7 14
-2 23 8 28 25 9 30 -9 2 -8 0 2 -7z"/>
<path d="M2428 623 c7 -3 16 -2 19 1 4 3 -2 6 -13 5 -11 0 -14 -3 -6 -6z"/>
<path d="M1914 536 c1 -8 5 -18 8 -22 4 -3 5 1 4 10 -1 8 -5 18 -8 22 -4 3 -5
-1 -4 -10z"/>
<path d="M1964 498 c10 -6 22 -6 26 -2 5 5 -3 10 -18 11 -22 1 -24 0 -8 -9z"/>
<path d="M2066 472 c-3 -5 1 -9 9 -9 8 0 12 4 9 9 -3 4 -7 8 -9 8 -2 0 -6 -4
-9 -8z"/>
<path d="M3995 470 c-16 -7 -17 -9 -3 -9 9 -1 20 4 23 9 7 11 7 11 -20 0z"/>
<path d="M3488 5763 c12 -2 30 -2 40 0 9 3 -1 5 -23 4 -22 0 -30 -2 -17 -4z"/>
<path d="M2178 5693 c12 -2 30 -2 40 0 9 3 -1 5 -23 4 -22 0 -30 -2 -17 -4z"/>
<path d="M3760 5696 c0 -2 18 -6 40 -8 22 -2 40 0 40 4 0 5 -18 8 -40 8 -22 0
-40 -2 -40 -4z"/>
<path d="M2008 5623 c7 -3 16 -2 19 1 4 3 -2 6 -13 5 -11 0 -14 -3 -6 -6z"/>
<path d="M4470 5480 c0 -5 5 -10 11 -10 5 0 7 5 4 10 -3 6 -8 10 -11 10 -2 0
-4 -4 -4 -10z"/>
<path d="M1665 5470 c-3 -5 1 -10 10 -10 9 0 13 5 10 10 -3 6 -8 10 -10 10 -2
0 -7 -4 -10 -10z"/>
<path d="M1536 5423 c10 -7 23 -13 28 -12 6 0 5 3 -2 6 -6 2 -10 8 -8 12 3 4
-4 7 -15 7 -19 0 -19 -1 -3 -13z"/>
<path d="M1385 5400 c-15 -16 -16 -23 -6 -33 10 -9 11 -8 5 6 -4 13 -2 16 9
11 8 -3 18 -1 22 5 4 7 -1 9 -12 5 -16 -5 -16 -4 1 10 11 9 15 16 9 16 -5 0
-18 -9 -28 -20z"/>
<path d="M1527 5394 c6 -15 23 -19 23 -5 0 5 -7 11 -14 14 -10 4 -13 1 -9 -9z"/>
<path d="M1283 5265 c0 -8 4 -12 9 -9 5 3 6 10 3 15 -9 13 -12 11 -12 -6z"/>
<path d="M1163 5215 c0 -8 4 -12 9 -9 5 3 6 10 3 15 -9 13 -12 11 -12 -6z"/>
<path d="M4880 5179 c0 -5 5 -7 10 -4 6 3 10 8 10 11 0 2 -4 4 -10 4 -5 0 -10
-5 -10 -11z"/>
<path d="M1095 5160 c3 -5 8 -10 11 -10 2 0 4 5 4 10 0 6 -5 10 -11 10 -5 0
-7 -4 -4 -10z"/>
<path d="M970 5065 c-7 -8 -9 -15 -5 -15 4 0 2 -7 -5 -15 -7 -8 -16 -13 -20
-10 -19 12 -21 -18 -3 -37 15 -15 20 -16 20 -4 0 8 -5 14 -10 13 -5 -1 -12 4
-15 12 -2 8 0 11 5 8 6 -4 21 5 33 18 13 14 19 25 14 25 -5 0 -2 5 6 10 8 5
10 10 4 10 -6 0 -17 -7 -24 -15z"/>
<path d="M4994 5062 c3 -5 0 -13 -6 -15 -9 -4 -10 -6 -1 -6 17 -1 25 16 12 25
-7 4 -9 3 -5 -4z"/>
<path d="M1006 5052 c-3 -4 4 -9 15 -9 23 -2 25 3 4 10 -8 4 -16 3 -19 -1z"/>
<path d="M5090 4996 c0 -2 8 -10 18 -17 15 -13 16 -12 3 4 -13 16 -21 21 -21
13z"/>
<path d="M866 4954 c-5 -14 -4 -15 9 -4 17 14 19 20 6 20 -5 0 -12 -7 -15 -16z"/>
<path d="M5017 4943 c3 -7 6 -13 8 -13 2 0 5 6 8 13 3 8 -1 14 -8 14 -7 0 -11
-6 -8 -14z"/>
<path d="M770 4836 c0 -2 8 -10 18 -17 15 -13 16 -12 3 4 -13 16 -21 21 -21
13z"/>
<path d="M830 4780 c-6 -11 -8 -20 -6 -20 3 0 10 9 16 20 6 11 8 20 6 20 -3 0
-10 -9 -16 -20z"/>
<path d="M710 4736 c0 -2 8 -10 18 -17 15 -13 16 -12 3 4 -13 16 -21 21 -21
13z"/>
<path d="M755 4710 c-3 -5 -1 -10 4 -10 6 0 11 5 11 10 0 6 -2 10 -4 10 -3 0
-8 -4 -11 -10z"/>
<path d="M5213 4707 c0 -8 6 -14 14 -14 9 0 10 4 2 14 -6 7 -12 13 -14 13 -1
0 -2 -6 -2 -13z"/>
<path d="M650 4675 c-7 -9 -8 -15 -2 -15 5 0 12 7 16 15 3 8 4 15 2 15 -2 0
-9 -7 -16 -15z"/>
<path d="M5364 4622 c0 -10 6 -19 13 -19 8 0 9 6 2 19 -5 10 -11 18 -12 18 -2
0 -3 -8 -3 -18z"/>
<path d="M670 4570 c0 -5 5 -10 10 -10 6 0 10 5 10 10 0 6 -4 10 -10 10 -5 0
-10 -4 -10 -10z"/>
<path d="M5410 4461 c0 -6 4 -13 10 -16 6 -3 7 1 4 9 -7 18 -14 21 -14 7z"/>
<path d="M5473 4429 c-12 -30 -11 -32 3 -17 9 8 14 23 12 33 -2 12 -7 7 -15
-16z"/>
<path d="M507 4434 c3 -7 9 -14 14 -14 14 0 10 17 -5 23 -10 4 -13 1 -9 -9z"/>
<path d="M5550 4335 c0 -8 4 -15 10 -15 5 0 7 7 4 15 -4 8 -8 15 -10 15 -2 0
-4 -7 -4 -15z"/>
<path d="M490 4291 c0 -6 4 -13 10 -16 6 -3 7 1 4 9 -7 18 -14 21 -14 7z"/>
<path d="M5476 4277 c3 -10 9 -15 12 -12 3 3 0 11 -7 18 -10 9 -11 8 -5 -6z"/>
<path d="M360 4150 c0 -11 2 -20 4 -20 2 0 6 9 9 20 3 11 1 20 -4 20 -5 0 -9
-9 -9 -20z"/>
<path d="M346 4117 c3 -10 9 -15 12 -12 3 3 0 11 -7 18 -10 9 -11 8 -5 -6z"/>
<path d="M5606 3997 c3 -10 9 -15 12 -12 3 3 0 11 -7 18 -10 9 -11 8 -5 -6z"/>
<path d="M5708 3975 c2 -14 6 -25 8 -25 2 0 4 11 4 25 0 14 -4 25 -9 25 -4 0
-6 -11 -3 -25z"/>
<path d="M280 3930 c0 -5 5 -10 11 -10 5 0 7 5 4 10 -3 6 -8 10 -11 10 -2 0
-4 -4 -4 -10z"/>
<path d="M212 3715 c0 -16 2 -22 5 -12 2 9 2 23 0 30 -3 6 -5 -1 -5 -18z"/>
<path d="M5776 3703 c-4 -9 -2 -20 4 -25 5 -4 8 -5 5 -2 -2 4 0 15 6 25 6 11
6 19 0 19 -5 0 -12 -8 -15 -17z"/>
<path d="M5743 3675 c-3 -9 -3 -18 -1 -21 3 -3 8 4 11 16 6 23 -1 27 -10 5z"/>
<path d="M5750 3485 c0 -5 5 -17 10 -25 5 -8 10 -10 10 -5 0 6 -5 17 -10 25
-5 8 -10 11 -10 5z"/>
<path d="M231 3433 c-1 -24 1 -43 3 -43 8 0 12 48 5 66 -5 13 -8 7 -8 -23z"/>
<path d="M138 3338 c-2 -29 -1 -64 3 -78 3 -15 7 7 8 53 1 88 -5 103 -11 25z"/>
<path d="M233 3340 c0 -25 2 -35 4 -22 2 12 2 32 0 45 -2 12 -4 2 -4 -23z"/>
<path d="M5850 3299 c0 -11 5 -17 10 -14 6 3 10 13 10 21 0 8 -4 14 -10 14 -5
0 -10 -9 -10 -21z"/>
<path d="M5850 3229 c0 -5 5 -7 10 -4 6 3 10 8 10 11 0 2 -4 4 -10 4 -5 0 -10
-5 -10 -11z"/>
<path d="M138 3174 c-1 -31 0 -61 4 -67 4 -7 8 18 8 56 0 81 -7 88 -12 11z"/>
<path d="M142 2990 c0 -14 2 -19 5 -12 2 6 2 18 0 25 -3 6 -5 1 -5 -13z"/>
<path d="M143 2860 c0 -36 2 -50 4 -32 2 17 2 47 0 65 -2 17 -4 3 -4 -33z"/>
<path d="M5861 2764 c0 -11 3 -14 6 -6 3 7 2 16 -1 19 -3 4 -6 -2 -5 -13z"/>
<path d="M143 2710 c0 -25 2 -35 4 -22 2 12 2 32 0 45 -2 12 -4 2 -4 -23z"/>
<path d="M5851 2710 c0 -8 4 -22 9 -30 12 -18 12 -2 0 25 -6 13 -9 15 -9 5z"/>
<path d="M5851 2624 c0 -11 3 -14 6 -6 3 7 2 16 -1 19 -3 4 -6 -2 -5 -13z"/>
<path d="M5780 2370 c0 -5 5 -10 10 -10 6 0 10 5 10 10 0 6 -4 10 -10 10 -5 0
-10 -4 -10 -10z"/>
<path d="M5778 2295 c-3 -25 -1 -31 8 -24 6 5 9 20 6 34 -6 34 -9 31 -14 -10z"/>
<path d="M210 2310 c0 -5 5 -10 11 -10 5 0 7 5 4 10 -3 6 -8 10 -11 10 -2 0
-4 -4 -4 -10z"/>
<path d="M210 2259 c0 -5 5 -7 10 -4 6 3 10 8 10 11 0 2 -4 4 -10 4 -5 0 -10
-5 -10 -11z"/>
<path d="M5677 2211 c-4 -17 -3 -21 5 -13 5 5 8 16 6 23 -3 8 -7 3 -11 -10z"/>
<path d="M270 2069 c0 -5 5 -7 10 -4 6 3 10 8 10 11 0 2 -4 4 -10 4 -5 0 -10
-5 -10 -11z"/>
<path d="M281 2034 c0 -11 3 -14 6 -6 3 7 2 16 -1 19 -3 4 -6 -2 -5 -13z"/>
<path d="M5614 2035 c-3 -8 -4 -20 -2 -27 3 -7 7 -1 10 15 6 29 1 36 -8 12z"/>
<path d="M362 1855 c0 -16 2 -22 5 -12 2 9 2 23 0 30 -3 6 -5 -1 -5 -18z"/>
<path d="M5530 1824 c0 -8 5 -12 10 -9 6 3 10 10 10 16 0 5 -4 9 -10 9 -5 0
-10 -7 -10 -16z"/>
<path d="M5465 1709 c-4 -6 -5 -12 -2 -15 2 -3 7 2 10 11 7 17 1 20 -8 4z"/>
<path d="M537 1693 c-4 -3 -7 -13 -7 -22 1 -13 3 -13 11 2 11 19 8 33 -4 20z"/>
<path d="M5473 1572 c-1 -22 0 -24 9 -8 6 10 6 22 2 26 -5 5 -10 -3 -11 -18z"/>
<path d="M505 1550 c3 -5 8 -10 11 -10 2 0 4 5 4 10 0 6 -5 10 -11 10 -5 0 -7
-4 -4 -10z"/>
<path d="M5382 1540 c0 -14 2 -19 5 -12 2 6 2 18 0 25 -3 6 -5 1 -5 -13z"/>
<path d="M536 1507 c3 -10 9 -15 12 -12 3 3 0 11 -7 18 -10 9 -11 8 -5 -6z"/>
<path d="M676 1452 c-2 -4 -1 -14 5 -22 7 -12 9 -10 9 8 0 23 -5 28 -14 14z"/>
<path d="M605 1430 c-4 -6 -11 -7 -17 -4 -7 4 -8 2 -4 -5 6 -9 11 -9 22 0 14
11 18 19 10 19 -3 0 -8 -5 -11 -10z"/>
<path d="M5310 1429 c0 -5 5 -7 10 -4 6 3 10 8 10 11 0 2 -4 4 -10 4 -5 0 -10
-5 -10 -11z"/>
<path d="M5350 1436 c0 -2 7 -7 16 -10 8 -3 12 -2 9 4 -6 10 -25 14 -25 6z"/>
<path d="M5366 1383 c-6 -14 -5 -15 5 -6 7 7 10 15 7 18 -3 3 -9 -2 -12 -12z"/>
<path d="M5332 1344 c10 -10 20 -15 24 -12 3 4 -5 12 -18 18 -22 12 -22 12 -6
-6z"/>
<path d="M650 1331 c0 -5 7 -14 15 -21 16 -14 18 -10 9 14 -6 17 -24 22 -24 7z"/>
<path d="M5305 1330 c3 -5 8 -10 11 -10 2 0 4 5 4 10 0 6 -5 10 -11 10 -5 0
-7 -4 -4 -10z"/>
<path d="M5283 1275 c0 -8 4 -12 9 -9 5 3 6 10 3 15 -9 13 -12 11 -12 -6z"/>
<path d="M5087 1145 c-4 -8 -3 -16 1 -19 4 -3 9 4 9 15 2 23 -3 25 -10 4z"/>
<path d="M5146 1097 c3 -10 9 -15 12 -12 3 3 0 11 -7 18 -10 9 -11 8 -5 -6z"/>
<path d="M5000 1057 c-12 -19 -11 -21 2 -10 8 7 18 10 21 6 4 -3 7 -1 7 5 0
21 -16 21 -30 -1z"/>
<path d="M5066 1031 c-4 -5 -2 -12 3 -15 5 -4 12 -2 15 3 4 5 2 12 -3 15 -5 4
-12 2 -15 -3z"/>
<path d="M919 1013 c-13 -16 -12 -17 4 -4 9 7 17 15 17 17 0 8 -8 3 -21 -13z"/>
<path d="M946 982 c-3 -5 4 -16 15 -25 10 -9 19 -12 19 -7 0 6 -7 13 -15 16
-8 4 -12 10 -9 15 3 5 3 9 0 9 -3 0 -7 -4 -10 -8z"/>
<path d="M4915 859 c-4 -6 -5 -12 -2 -15 2 -3 7 2 10 11 7 17 1 20 -8 4z"/>
<path d="M4767 843 c-9 -14 9 -27 23 -18 6 3 10 12 10 18 0 8 -3 7 -9 -2 -7
-11 -9 -11 -13 0 -3 9 -6 10 -11 2z"/>
<path d="M4810 797 c0 -2 6 -10 14 -16 11 -9 16 -9 22 1 4 7 4 10 -1 6 -4 -4
-14 -3 -22 3 -7 6 -13 9 -13 6z"/>
<path d="M4699 763 c-13 -16 -12 -17 4 -4 16 13 21 21 13 21 -2 0 -10 -8 -17
-17z"/>
<path d="M1467 669 c7 -7 15 -10 18 -7 3 3 -2 9 -12 12 -14 6 -15 5 -6 -5z"/>
<path d="M4470 614 c0 -8 5 -12 10 -9 6 4 8 11 5 16 -9 14 -15 11 -15 -7z"/>
<path d="M4440 580 c0 -5 5 -10 11 -10 5 0 7 5 4 10 -3 6 -8 10 -11 10 -2 0
-4 -4 -4 -10z"/>
<path d="M4453 520 c-13 -5 -23 -12 -23 -15 0 -9 16 -5 36 10 22 16 19 18 -13
5z"/>
<path d="M1545 510 c3 -5 8 -10 11 -10 2 0 4 5 4 10 0 6 -5 10 -11 10 -5 0 -7
-4 -4 -10z"/>
<path d="M1720 490 c8 -5 20 -10 25 -10 6 0 3 5 -5 10 -8 5 -19 10 -25 10 -5
0 -3 -5 5 -10z"/>
<path d="M1685 440 c3 -5 10 -10 16 -10 5 0 9 5 9 10 0 6 -7 10 -16 10 -8 0
-12 -4 -9 -10z"/>
<path d="M4284 441 c3 -5 17 -7 32 -5 39 4 39 11 -1 12 -20 1 -33 -2 -31 -7z"/>
<path d="M4015 380 c-3 -5 -2 -10 4 -10 5 0 13 5 16 10 3 6 2 10 -4 10 -5 0
-13 -4 -16 -10z"/>
<path d="M1850 370 c0 -5 5 -10 11 -10 5 0 7 5 4 10 -3 6 -8 10 -11 10 -2 0
-4 -4 -4 -10z"/>
<path d="M4125 360 c-4 -7 3 -8 22 -4 38 9 42 14 10 14 -14 0 -29 -5 -32 -10z"/>
<path d="M3795 310 c3 -5 13 -10 21 -10 8 0 12 5 9 10 -3 6 -13 10 -21 10 -8
0 -12 -4 -9 -10z"/>
<path d="M2030 296 c0 -2 11 -6 25 -8 14 -3 25 -1 25 3 0 5 -11 9 -25 9 -14 0
-25 -2 -25 -4z"/>
<path d="M3493 233 c9 -2 25 -2 35 0 9 3 1 5 -18 5 -19 0 -27 -2 -17 -5z"/>
<path d="M2283 213 c9 -2 23 -2 30 0 6 3 -1 5 -18 5 -16 0 -22 -2 -12 -5z"/>
<path d="M3698 213 c12 -2 32 -2 45 0 12 2 2 4 -23 4 -25 0 -35 -2 -22 -4z"/>
<path d="M2617 143 c18 -2 50 -2 70 0 21 2 7 4 -32 4 -38 0 -55 -2 -38 -4z"/>
<path d="M2736 141 c-5 -8 84 -3 93 5 2 2 -16 4 -42 4 -25 0 -48 -4 -51 -9z"/>
<path d="M3248 133 c7 -3 16 -2 19 1 4 3 -2 6 -13 5 -11 0 -14 -3 -6 -6z"/>
<path d="M1130 5350 c-9 -6 -10 -10 -3 -10 6 0 15 5 18 10 8 12 4 12 -15 0z"/>
<path d="M1046 5272 c-3 -5 1 -9 9 -9 8 0 12 4 9 9 -3 4 -7 8 -9 8 -2 0 -6 -4
-9 -8z"/>
<path d="M969 5178 c0 -2 -2 -11 -4 -21 -3 -15 -1 -16 11 -6 7 6 11 15 8 20
-5 9 -13 12 -15 7z"/>
<path d="M5016 5158 c3 -5 10 -6 15 -3 13 9 11 12 -6 12 -8 0 -12 -4 -9 -9z"/>
<path d="M880 5116 c0 -3 9 -10 19 -16 15 -7 22 -7 27 2 4 7 4 10 -1 6 -4 -4
-16 -3 -26 3 -11 5 -19 7 -19 5z"/>
<path d="M725 4951 c-3 -5 -2 -12 3 -15 5 -3 9 1 9 9 0 17 -3 19 -12 6z"/>
<path d="M696 4868 c3 -5 10 -6 15 -3 13 9 11 12 -6 12 -8 0 -12 -4 -9 -9z"/>
<path d="M345 4370 c-3 -5 -1 -10 4 -10 6 0 11 5 11 10 0 6 -2 10 -4 10 -3 0
-8 -4 -11 -10z"/>
<path d="M62 3530 c0 -19 2 -27 5 -17 2 9 2 25 0 35 -3 9 -5 1 -5 -18z"/>
<path d="M51 2524 c0 -11 3 -14 6 -6 3 7 2 16 -1 19 -3 4 -6 -2 -5 -13z"/>
<path d="M57 2469 c4 -13 8 -18 11 -10 2 7 -1 18 -6 23 -8 8 -9 4 -5 -13z"/>
<path d="M95 2460 c3 -5 8 -10 11 -10 2 0 4 5 4 10 0 6 -5 10 -11 10 -5 0 -7
-4 -4 -10z"/>
<path d="M195 1960 c3 -5 8 -10 11 -10 2 0 4 5 4 10 0 6 -5 10 -11 10 -5 0 -7
-4 -4 -10z"/>
<path d="M246 1873 c-6 -14 -5 -15 5 -6 7 7 10 15 7 18 -3 3 -9 -2 -12 -12z"/>
<path d="M317 1703 c-11 -11 -8 -20 7 -20 8 0 12 6 9 14 -6 15 -7 15 -16 6z"/>
<path d="M320 1656 c0 -2 7 -9 15 -16 9 -7 15 -8 15 -2 0 5 -7 12 -15 16 -8 3
-15 4 -15 2z"/>
<path d="M390 1535 c0 -5 5 -17 10 -25 5 -8 10 -10 10 -5 0 6 -5 17 -10 25 -5
8 -10 11 -10 5z"/>
<path d="M480 1410 c-9 -6 -10 -10 -3 -10 6 0 15 5 18 10 8 12 4 12 -15 0z"/>
<path d="M492 1360 c14 -22 24 -19 15 5 -4 8 -11 15 -17 15 -6 0 -6 -7 2 -20z"/>
<path d="M563 1281 c0 -9 6 -25 13 -36 8 -11 14 -15 14 -9 0 5 -5 15 -12 22
-8 8 -8 15 0 25 9 10 9 14 -1 14 -8 0 -14 -7 -14 -16z"/>
<path d="M640 1221 c0 -6 4 -13 10 -16 6 -3 7 1 4 9 -7 18 -14 21 -14 7z"/>
<path d="M621 1180 c12 -16 27 -26 32 -23 6 4 8 0 5 -9 -4 -8 0 -15 7 -15 10
0 11 5 4 19 -6 10 -15 15 -21 12 -8 -5 -9 -1 -5 10 4 10 3 15 -3 11 -6 -3 -10
-2 -10 3 0 6 -7 12 -15 16 -11 4 -9 -3 6 -24z"/>
<path d="M678 1113 c7 -3 16 -2 19 1 4 3 -2 6 -13 5 -11 0 -14 -3 -6 -6z"/>
<path d="M719 1063 c6 -12 16 -25 21 -28 17 -11 11 5 -11 28 l-21 22 11 -22z"/>
<path d="M770 1056 c0 -2 7 -7 16 -10 8 -3 12 -2 9 4 -6 10 -25 14 -25 6z"/>
<path d="M812 992 c-14 -9 -6 -42 10 -42 7 0 6 5 -1 13 -8 10 -7 17 1 25 14
14 9 15 -10 4z"/>
<path d="M861 903 c14 -23 38 -37 47 -28 3 2 -1 11 -8 20 -7 9 -15 13 -18 10
-3 -3 -12 1 -20 8 -13 11 -14 9 -1 -10z"/>
<path d="M920 901 c0 -6 4 -13 10 -16 6 -3 7 1 4 9 -7 18 -14 21 -14 7z"/>
<path d="M974 822 c3 -5 0 -13 -6 -15 -9 -4 -10 -6 -1 -6 17 -1 25 16 12 25
-7 4 -9 3 -5 -4z"/>
<path d="M1030 746 c0 -2 7 -7 16 -10 8 -3 12 -2 9 4 -6 10 -25 14 -25 6z"/>
<path d="M1078 743 c6 -2 18 -2 25 0 6 3 1 5 -13 5 -14 0 -19 -2 -12 -5z"/>
<path d="M1130 660 c0 -12 40 -34 48 -26 3 3 -1 6 -9 6 -10 1 -8 5 5 15 11 8
15 15 9 15 -7 0 -15 -4 -18 -10 -3 -5 -11 -10 -16 -10 -6 0 -7 5 -4 10 3 6 1
10 -4 10 -6 0 -11 -4 -11 -10z"/>
<path d="M1190 621 c0 -6 4 -13 10 -16 6 -3 7 1 4 9 -7 18 -14 21 -14 7z"/>
<path d="M1225 590 c3 -5 8 -10 11 -10 2 0 4 5 4 10 0 6 -5 10 -11 10 -5 0 -7
-4 -4 -10z"/>
<path d="M1251 567 c2 -1 13 -9 24 -17 19 -14 19 -14 6 3 -7 9 -18 17 -24 17
-6 0 -8 -1 -6 -3z"/>
<path d="M1346 513 c-3 -4 3 -13 15 -21 26 -18 34 -11 10 10 -11 9 -22 14 -25
11z"/>
<path d="M4469 438 c-7 -23 -4 -35 7 -35 9 0 11 4 4 12 -5 7 -7 15 -3 18 3 4
3 7 0 7 -4 0 -7 -1 -8 -2z"/>
<path d="M1580 365 c0 -8 29 -12 39 -5 9 5 4 8 -13 8 -14 0 -26 -2 -26 -3z"/>
<path d="M1625 340 c-3 -5 -2 -10 4 -10 5 0 18 -3 28 -7 17 -6 17 -6 1 10 -19
20 -24 21 -33 7z"/>
<path d="M1720 330 c-9 -6 -10 -10 -3 -10 6 0 15 5 18 10 8 12 4 12 -15 0z"/>
<path d="M1900 216 c0 -2 9 -6 20 -9 11 -3 20 -1 20 4 0 5 -9 9 -20 9 -11 0
-20 -2 -20 -4z"/>
<path d="M3921 164 c0 -11 3 -14 6 -6 3 7 2 16 -1 19 -3 4 -6 -2 -5 -13z"/>
<path d="M3956 171 c-4 -5 3 -7 14 -4 23 6 26 13 6 13 -8 0 -17 -4 -20 -9z"/>
<path d="M2108 143 c7 -3 16 -2 19 1 4 3 -2 6 -13 5 -11 0 -14 -3 -6 -6z"/>
<path d="M2260 100 c20 -13 33 -13 25 0 -3 6 -14 10 -23 10 -15 0 -15 -2 -2
-10z"/>
<path d="M3700 100 c8 -5 22 -9 30 -9 10 0 8 3 -5 9 -27 12 -43 12 -25 0z"/>
<path d="M2310 92 c0 -4 10 -9 22 -9 18 -2 20 0 8 7 -18 12 -30 13 -30 2z"/>
<path d="M2390 81 c0 -6 4 -13 10 -16 6 -3 7 1 4 9 -7 18 -14 21 -14 7z"/>
<path d="M2450 60 c14 -4 32 -8 40 -9 13 -1 13 0 0 9 -8 5 -26 9 -40 9 l-25
-1 25 -8z"/>
<path d="M3520 60 c0 -5 7 -10 15 -10 8 0 15 5 15 10 0 6 -7 10 -15 10 -8 0
-15 -4 -15 -10z"/>
<path d="M3185 20 c-13 -6 -15 -9 -5 -9 8 0 22 4 30 9 18 12 2 12 -25 0z"/>
<path d="M2798 13 c7 -3 16 -2 19 1 4 3 -2 6 -13 5 -11 0 -14 -3 -6 -6z"/>
</g>
</svg>
