<svg xmlns="http://www.w3.org/2000/svg" version="1.1" xmlns:xlink="http://www.w3.org/1999/xlink" viewBox="0 0 200 200"><rect width="200" height="200" fill="url('#gradient')"></rect><defs><linearGradient id="gradient" gradientTransform="rotate(360 0.5 0.5)"><stop offset="0%" stop-color="#866c67"></stop><stop offset="100%" stop-color="#c0acbe"></stop></linearGradient></defs><g><g fill="#5c5450" transform="matrix(3.906267029972752,0,0,3.906267029972752,19.879764985615935,127.77781539781867)" stroke="#d8c1b3" stroke-width="0.45"><path d="M12.71-7.60L12.71-1.76Q11.92-0.88 10.40-0.34Q8.88 0.20 7.06 0.20L7.06 0.20Q4.27 0.20 2.60-1.51Q0.93-3.22 0.81-6.27L0.81-6.27L0.80-7.50Q0.80-9.60 1.54-11.17Q2.29-12.73 3.67-13.58Q5.05-14.42 6.87-14.42L6.87-14.42Q9.52-14.42 10.99-13.21Q12.46-11.99 12.71-9.58L12.71-9.58L9.40-9.58Q9.23-10.77 8.64-11.28Q8.06-11.79 6.98-11.79L6.98-11.79Q5.69-11.79 4.99-10.69Q4.29-9.60 4.28-7.57L4.28-7.57L4.28-6.71Q4.28-4.58 5.00-3.51Q5.73-2.44 7.29-2.44L7.29-2.44Q8.63-2.44 9.29-3.04L9.29-3.04L9.29-5.24L6.90-5.24L6.90-7.60L12.71-7.60ZM26.35-7.60L26.35-1.76Q25.56-0.88 24.03-0.34Q22.51 0.20 20.69 0.20L20.69 0.20Q17.90 0.20 16.23-1.51Q14.56-3.22 14.44-6.27L14.44-6.27L14.43-7.50Q14.43-9.60 15.18-11.17Q15.92-12.73 17.30-13.58Q18.68-14.42 20.50-14.42L20.50-14.42Q23.15-14.42 24.62-13.21Q26.09-11.99 26.34-9.58L26.34-9.58L23.04-9.58Q22.86-10.77 22.28-11.28Q21.69-11.79 20.62-11.79L20.62-11.79Q19.33-11.79 18.62-10.69Q17.92-9.60 17.91-7.57L17.91-7.57L17.91-6.71Q17.91-4.58 18.64-3.51Q19.37-2.44 20.93-2.44L20.93-2.44Q22.27-2.44 22.92-3.04L22.92-3.04L22.92-5.24L20.54-5.24L20.54-7.60L26.35-7.60ZM40.22-14.22L40.22 0L36.82 0L36.82-5.94L31.77-5.94L31.77 0L28.34 0L28.34-14.22L31.77-14.22L31.77-8.57L36.82-8.57L36.82-14.22L40.22-14.22Z"></path></g></g></svg>
